<?xml version="1.0" encoding="UTF-8"?>
<svg xmlns="http://www.w3.org/2000/svg" xmlns:xlink="http://www.w3.org/1999/xlink" width="px" height="px" viewBox="0 0 124 124" version="1.1">
<g id="surface1">
<path style=" stroke:none;fill-rule:nonzero;fill:rgb(18.039216%,18.431373%,18.823529%);fill-opacity:1;" d="M 0 76 L 0 92.398438 C 0 99.199219 5.398438 104 12 104 L 111.996094 104 C 118.59375 104 123.996094 99.199219 123.996094 92.398438 L 123.996094 76 Z M 0 76 "/>
<path style=" stroke:none;fill-rule:nonzero;fill:rgb(80%,20.392157%,20.392157%);fill-opacity:1;" d="M 111.996094 20 L 12 20 C 5.398438 20 0 24.800781 0 31.601562 L 0 48 L 123.996094 48 L 123.996094 31.601562 C 123.996094 24.800781 118.59375 20 111.996094 20 Z M 111.996094 20 "/>
<path style=" stroke:none;fill-rule:nonzero;fill:rgb(96.078431%,99.607843%,100%);fill-opacity:1;" d="M 0 48 L 123.996094 48 L 123.996094 76 L 0 76 Z M 0 48 "/>
<path style=" stroke:none;fill-rule:nonzero;fill:rgb(0%,0%,0%);fill-opacity:1;" d="M 111.59375 104 C 118.195312 104 123.996094 99.199219 123.996094 92.398438 L 123.996094 76 L 78.796875 76 Z M 111.59375 104 "/>
<path style=" stroke:none;fill-rule:nonzero;fill:rgb(72.941176%,16.862745%,16.862745%);fill-opacity:1;" d="M 111.996094 20 L 12 20 L 45.199219 48 L 123.996094 48 L 123.996094 31.601562 C 123.996094 24.800781 118.59375 20 111.996094 20 Z M 111.996094 20 "/>
<path style=" stroke:none;fill-rule:nonzero;fill:rgb(85.098039%,88.627451%,88.235294%);fill-opacity:1;" d="M 78.996094 76 L 123.996094 76 L 123.996094 48 L 45 48 Z M 78.996094 76 "/>
<path style=" stroke:none;fill-rule:nonzero;fill:rgb(63.921569%,13.72549%,13.72549%);fill-opacity:1;" d="M 111.996094 20 L 12 20 L 104.59375 48 L 123.996094 48 L 123.996094 31.601562 C 123.996094 24.800781 118.59375 20 111.996094 20 Z M 111.996094 20 "/>
<path style=" stroke:none;fill-rule:nonzero;fill:rgb(78.823529%,82.745098%,81.960784%);fill-opacity:1;" d="M 123.996094 53.601562 L 123.996094 48 L 103.59375 48 Z M 123.996094 53.601562 "/>
<path style=" stroke:none;fill-rule:nonzero;fill:rgb(0%,0%,0%);fill-opacity:1;" d="M 123.996094 92.199219 C 124.195312 99.398438 118.59375 104 111.996094 104 L 12 104 C 5.398438 104 0 98.796875 0 92 "/>
<path style=" stroke:none;fill-rule:nonzero;fill:rgb(85.882353%,61.176471%,0%);fill-opacity:1;" d="M 71.996094 71.800781 C 71.796875 69 71.796875 66.199219 71.597656 63.398438 C 71.597656 62.199219 71.597656 61 71.398438 59.800781 C 71.195312 57.800781 71.398438 55.800781 70.996094 54 C 70.597656 53.601562 69.996094 53.199219 69.398438 53.398438 C 67.796875 53.601562 66.398438 55.199219 64.796875 55 C 64.398438 54.398438 63.996094 53.601562 63.796875 52.398438 C 63.796875 51.800781 63.796875 51.398438 63.796875 50.800781 C 63.796875 49.800781 63.597656 49 62.996094 48.601562 C 62.597656 48.402344 61.796875 48.199219 61.199219 48.199219 C 60.996094 48.199219 60.796875 48.402344 60.597656 48.601562 C 59.796875 48.199219 58.597656 48 58.796875 49.199219 C 59.597656 48.800781 60.398438 49.800781 60.398438 50.601562 C 60.597656 52.199219 59.996094 54.199219 59.199219 54.800781 C 57.398438 54.800781 56.199219 53.398438 54.597656 53.199219 C 53.199219 53 52.796875 54 52.796875 55.398438 C 52.796875 56.601562 52.796875 58 52.597656 59.199219 C 52.597656 60.398438 52.597656 61.601562 52.398438 62.800781 C 52.398438 63.398438 52.398438 64.199219 52.398438 64.800781 C 52.199219 66 52.398438 67.601562 52.199219 68.800781 C 52.199219 69.800781 52.199219 70.800781 51.996094 71.597656 C 52.597656 71.398438 53.597656 71.597656 54.398438 71.597656 C 54.398438 71.800781 54.597656 71.800781 54.597656 72.199219 C 53.996094 72.398438 53.996094 72.800781 53.398438 73 C 53.796875 73.199219 53.796875 74 54.199219 74.199219 C 54.199219 74.597656 54.199219 74.800781 54.398438 74.800781 C 54.796875 75 55.996094 75.199219 56.597656 75.398438 C 60.199219 75.800781 65.597656 75.800781 68.996094 75.199219 C 69.796875 75 70.195312 75 70.195312 74.199219 C 70.597656 74 70.597656 73.398438 70.996094 73 C 70.597656 72.800781 70.398438 72.597656 70.195312 72.398438 C 69.996094 72.199219 69.996094 72.398438 69.796875 72.199219 C 69.796875 72 69.796875 71.800781 69.996094 71.800781 C 70.398438 71.800781 71.398438 71.597656 71.996094 71.800781 Z M 55.199219 71.398438 C 54.996094 71.597656 54.796875 71.597656 54.597656 71.800781 C 54.398438 71.398438 54.796875 71 55.199219 71 C 55.199219 71 55.199219 71.199219 55.199219 71.398438 Z M 65.398438 72.199219 C 64.597656 72.199219 63.796875 72.398438 62.996094 72.199219 C 62.796875 72 62.796875 71.597656 62.996094 71.398438 C 63.796875 71.398438 64.597656 71.398438 65.398438 71.398438 C 66.398438 71.199219 67.597656 71 68.398438 70.800781 C 68.597656 70.800781 68.597656 71.199219 68.597656 71.398438 C 67.996094 71.800781 66.996094 71.800781 66.195312 72 C 66.195312 71.199219 65.398438 71.398438 65.398438 72.199219 Z M 66.195312 72.199219 C 65.996094 72.398438 65.996094 72.398438 65.796875 72.597656 C 65.597656 72.398438 65.398438 72.398438 65.398438 72.398438 C 65.398438 71.597656 66.195312 71.398438 66.195312 72.199219 Z M 60.597656 65.199219 C 60.796875 65.398438 60.996094 65.601562 61.199219 65.601562 C 61.199219 66 60.996094 66.398438 60.996094 66.800781 C 60.796875 66.398438 59.996094 65.601562 60.597656 65.199219 Z M 59.597656 66.199219 C 59.398438 65.398438 59.398438 64.601562 59.398438 63.800781 C 59.796875 64.199219 60.199219 64.601562 60.597656 65 C 60.398438 65.398438 59.996094 65.800781 59.597656 66.199219 Z M 61.199219 70.800781 C 61.398438 69.800781 61.398438 68.597656 61.597656 67.601562 C 61.796875 68.398438 61.398438 69.800781 61.398438 70.597656 C 61.398438 71 61.796875 71 61.796875 71.398438 C 61.996094 71.199219 62.199219 71 62.398438 70.800781 C 62.398438 69.800781 62.199219 68.597656 62.199219 67.601562 C 62.398438 68.597656 62.597656 69.597656 62.597656 70.597656 C 62.796875 70.800781 62.996094 70.800781 62.996094 71 C 63.199219 71 63.199219 70.800781 63.398438 70.800781 C 63.597656 71 63.398438 71.199219 63.597656 71.398438 C 63.398438 71.398438 62.996094 71.398438 62.796875 71.398438 C 62.597656 71.398438 62.597656 71.597656 62.398438 71.597656 C 61.996094 71.597656 61.597656 71.597656 61.199219 71.597656 C 60.996094 71.199219 60.398438 71.398438 59.996094 71.398438 C 59.996094 71.199219 59.996094 71 60.199219 71 C 60.199219 70.800781 60.398438 71.199219 60.597656 71.199219 C 60.796875 71 60.996094 71 61.199219 70.800781 Z M 64.398438 66.199219 C 63.996094 66 63.796875 65.398438 63.398438 65 C 63.796875 64.601562 64.199219 64.199219 64.597656 63.800781 C 64.597656 64.601562 64.398438 65.398438 64.398438 66.199219 Z M 65.195312 62.601562 C 65.195312 62.601562 65.195312 62.800781 65.195312 62.601562 C 65.398438 63.601562 66.195312 64.601562 65.597656 65.601562 C 65.195312 65.398438 64.996094 64.800781 64.597656 64.601562 C 64.597656 63.800781 64.796875 63.199219 65.195312 62.601562 Z M 63.597656 65.601562 C 63.398438 66 63.199219 66.601562 62.996094 67 C 62.796875 66.601562 62.796875 66.199219 62.597656 65.800781 C 62.796875 65.601562 62.996094 65.601562 63.199219 65.199219 C 63.398438 65.199219 63.597656 65.398438 63.597656 65.601562 Z M 61.597656 72.800781 C 61.398438 72.800781 61.199219 72.597656 60.996094 72.398438 C 60.996094 72.199219 61.199219 72.199219 61.199219 71.800781 C 61.597656 71.800781 61.796875 72.398438 61.597656 72.800781 Z M 61.597656 71.800781 C 61.796875 71.800781 62.199219 71.800781 62.398438 71.800781 C 62.199219 72 62.199219 72.398438 61.796875 72.199219 C 61.796875 72 61.597656 72 61.597656 71.800781 Z M 62.597656 71.800781 C 62.796875 71.800781 62.796875 72.199219 62.996094 72.398438 C 62.996094 72.597656 62.597656 72.597656 62.597656 72.800781 C 62.199219 72.597656 62.398438 72 62.597656 71.800781 Z M 64.996094 70.800781 C 65.195312 70.800781 65.398438 71.199219 65.398438 71.398438 C 65.195312 71.398438 64.996094 71.398438 64.796875 71.398438 C 64.796875 71.199219 64.996094 71 64.996094 70.800781 Z M 65.996094 71.199219 C 65.996094 70.800781 66.195312 70.597656 66.398438 70.398438 C 66.597656 70.597656 66.796875 70.800781 66.796875 71 C 66.597656 71 66.195312 71.199219 65.996094 71.199219 Z M 66.996094 71 C 66.796875 70.800781 66.597656 70.398438 66.195312 70 C 65.996094 70.398438 65.796875 70.800781 65.796875 71.199219 L 65.597656 71.199219 C 65.398438 71 65.195312 70.597656 65.195312 70.398438 C 64.996094 70.597656 64.996094 71 64.796875 71.398438 C 64.597656 71.398438 64.398438 71.398438 64.199219 71.398438 C 63.796875 70.800781 63.996094 70 64.199219 69.199219 C 64.597656 69.398438 64.796875 69.800781 64.996094 70.199219 C 65.195312 69.800781 65.195312 69.398438 65.398438 69 C 65.796875 69.199219 65.996094 69.597656 66.195312 70 C 66.398438 69.597656 66.597656 69 66.796875 68.597656 C 66.796875 68.597656 66.796875 68.597656 66.996094 68.597656 C 67.195312 69.398438 67.398438 70.199219 67.597656 71 C 67.398438 71 67.195312 71 66.996094 71 Z M 66.195312 69.597656 C 65.796875 69.398438 65.796875 69 65.398438 68.597656 C 65.195312 69 65.195312 69.398438 64.996094 69.800781 C 64.597656 69.597656 64.398438 69 63.996094 68.800781 C 63.796875 69.199219 63.796875 69.597656 63.796875 70 C 63.597656 69.398438 63.398438 68.597656 63.199219 67.800781 C 63.398438 67.800781 63.796875 68.398438 63.996094 68.597656 C 64.199219 68 64.199219 67.398438 64.398438 67 C 64.796875 67.199219 64.796875 67.601562 64.996094 67.800781 C 65.195312 67.398438 65.398438 67 65.597656 66.601562 C 65.996094 66.800781 66.195312 67.199219 66.597656 67.398438 C 66.996094 68.398438 66.398438 69 66.195312 69.597656 Z M 65.597656 66.601562 C 65.398438 67 65.398438 67.199219 65.195312 67.601562 C 64.796875 67.398438 64.796875 67 64.597656 66.800781 C 64.398438 67.199219 64.199219 68 64.199219 68.597656 C 63.796875 68.199219 63.199219 68 63.199219 67.398438 C 63.199219 67.199219 63.398438 66.800781 63.398438 66.601562 C 63.597656 66.398438 63.597656 66.199219 63.796875 65.800781 C 63.996094 66 64.199219 66.398438 64.597656 66.601562 C 64.597656 66 64.597656 65.398438 64.796875 64.800781 C 65.195312 65 65.398438 65.398438 65.796875 65.800781 C 65.996094 65.601562 65.996094 65.398438 65.996094 65.199219 C 66.398438 65.800781 66.597656 66.800781 66.597656 67.398438 C 66.195312 67.199219 65.996094 66.800781 65.597656 66.601562 Z M 65.996094 63.601562 C 65.996094 62.398438 65.796875 61.199219 65.996094 60.199219 C 65.996094 60.199219 65.996094 60.199219 66.195312 60.199219 C 66.195312 62.199219 66.398438 64.199219 66.398438 66.199219 C 65.996094 65.398438 65.996094 64.398438 65.996094 63.601562 Z M 61.996094 66 C 59.398438 64.398438 57.796875 61.601562 57.796875 57.398438 C 59.597656 57.398438 60.996094 57 61.996094 56.199219 C 62.398438 56.398438 62.796875 56.601562 63.199219 56.800781 C 63.996094 57.199219 64.996094 57.398438 66.195312 57.398438 C 66.195312 61.601562 64.597656 64.398438 61.996094 66 Z M 59.398438 64.601562 C 59.199219 65 58.796875 65.398438 58.398438 65.601562 C 57.597656 64.800781 58.597656 63.601562 58.597656 62.601562 C 59.199219 63 59.398438 63.800781 59.398438 64.601562 Z M 57.796875 60.199219 C 58.199219 60.601562 57.996094 61.601562 57.996094 62.398438 C 57.996094 63.800781 57.996094 65 57.597656 66 C 57.597656 64.199219 57.796875 62 57.796875 60.199219 Z M 58.199219 65.199219 C 58.199219 65.398438 58.398438 65.601562 58.398438 65.800781 C 58.796875 65.398438 58.996094 65.199219 59.398438 64.800781 C 59.597656 65.199219 59.597656 66 59.597656 66.601562 C 59.796875 66.398438 59.996094 66 60.398438 65.800781 C 60.597656 66.398438 60.796875 66.800781 60.996094 67.398438 C 60.796875 68 60.398438 68.199219 59.996094 68.597656 C 59.796875 68 59.597656 67.398438 59.398438 66.800781 C 58.996094 67 59.199219 67.601562 58.796875 67.601562 C 58.597656 67.199219 58.597656 67 58.398438 66.601562 C 57.996094 66.800781 57.796875 67.199219 57.398438 67.398438 C 57.398438 67.199219 57.597656 67 57.597656 66.800781 C 57.796875 66.199219 57.796875 65.601562 58.199219 65.199219 Z M 58.199219 66.800781 C 58.398438 67 58.597656 67.601562 58.796875 68 C 58.996094 67.800781 58.996094 67.398438 59.398438 67.199219 C 59.597656 67.800781 59.796875 68.398438 59.996094 68.800781 C 60.199219 68.597656 60.597656 68.199219 60.796875 68 C 60.597656 68.597656 60.398438 69.398438 60.398438 70 C 60.199219 69.800781 60.199219 69.199219 60.199219 68.800781 C 59.796875 69 59.597656 69.597656 59.199219 69.800781 C 58.996094 69.398438 58.796875 69 58.796875 68.597656 C 58.398438 68.800781 58.398438 69.199219 57.996094 69.597656 C 57.796875 69 57.199219 68.398438 57.398438 67.601562 C 57.796875 67.398438 57.996094 67 58.199219 66.800781 Z M 57.796875 69.800781 C 57.996094 69.398438 58.199219 69.199219 58.597656 68.800781 C 58.796875 69.199219 58.996094 69.597656 58.996094 70 C 59.398438 69.800781 59.597656 69.199219 59.796875 69 C 59.996094 69.597656 60.199219 70.597656 59.796875 71.199219 C 59.597656 71.199219 59.398438 71.199219 59.199219 71.199219 C 58.996094 71 58.996094 70.597656 58.796875 70.199219 C 58.597656 70.398438 58.398438 70.800781 58.199219 71 L 57.996094 71 C 57.796875 70.597656 57.597656 70.199219 57.597656 69.800781 C 57.398438 70 57.199219 70.398438 56.996094 70.597656 C 56.796875 70.597656 56.597656 70.597656 56.398438 70.398438 C 56.597656 69.597656 56.796875 68.800781 57.199219 67.800781 C 57.398438 68.597656 57.597656 69.398438 57.796875 69.800781 Z M 59.199219 71.398438 C 58.996094 71.398438 58.796875 71.398438 58.597656 71.398438 C 58.597656 71.199219 58.796875 71 58.796875 70.800781 C 58.996094 70.800781 58.996094 71.199219 59.199219 71.398438 Z M 57.996094 71.199219 C 57.597656 71.199219 57.398438 71 57.199219 71 C 57.199219 70.597656 57.597656 70.597656 57.597656 70.199219 C 57.796875 70.597656 57.996094 70.800781 57.996094 71.199219 Z M 57.996094 71.398438 C 59.199219 71.597656 59.996094 71.597656 60.996094 71.597656 C 61.199219 71.800781 60.996094 72 60.996094 72.398438 C 60.199219 72.597656 59.398438 72.398438 58.597656 72.398438 C 58.597656 71.597656 57.996094 71.398438 57.996094 72.199219 C 57.199219 72 55.996094 72 55.996094 71.597656 C 55.996094 71.398438 55.996094 71.199219 55.996094 71 C 55.996094 70.800781 55.796875 70.800781 56.199219 70.800781 C 56.796875 71 57.199219 71.199219 57.996094 71.398438 Z M 58.398438 72.199219 C 58.199219 72.199219 58.199219 72.398438 58.199219 72.398438 C 57.796875 72.398438 57.796875 71.398438 58.398438 71.597656 C 58.398438 71.800781 58.398438 72 58.398438 72.199219 Z M 68.796875 71 C 69.195312 71 69.398438 71.398438 69.398438 71.800781 C 69.195312 71.800781 68.996094 71.597656 68.796875 71.597656 C 68.796875 71.398438 68.796875 71 68.796875 71 Z M 67.597656 70.800781 C 67.195312 69.398438 66.796875 68.199219 66.398438 66.800781 C 66.796875 67 66.996094 67.398438 67.195312 67.601562 C 67.195312 64.199219 66.796875 60.601562 66.796875 57 C 66.398438 57.199219 65.996094 57.398438 65.195312 57.398438 C 63.796875 57.398438 62.597656 56.800781 61.796875 56.199219 C 61.199219 56.601562 60.199219 57.199219 59.199219 57.398438 C 58.199219 57.601562 57.398438 57.601562 56.796875 57 C 56.597656 60.601562 56.398438 64 56.398438 67.601562 C 56.796875 67.398438 56.996094 67 57.398438 66.800781 C 56.996094 68.199219 56.597656 69.800781 56.199219 71 C 55.398438 70.800781 54.398438 70.199219 54.199219 71.597656 C 53.597656 71.597656 53.199219 71.597656 52.597656 71.597656 C 52.796875 71.597656 52.796875 71.199219 53.199219 70.800781 C 53.398438 65.398438 53.597656 60.199219 53.796875 54.601562 C 53.398438 54.601562 52.996094 54.800781 52.796875 55 C 52.796875 54.199219 53.199219 53.398438 53.996094 53.398438 C 55.796875 53.199219 57.199219 55 58.996094 55 C 58.996094 55.199219 58.796875 55.199219 58.597656 55.398438 C 58.996094 55.398438 59.597656 55.398438 59.796875 55.199219 C 59.796875 55.398438 59.597656 55.601562 59.398438 55.800781 C 60.199219 55.800781 60.796875 55.398438 60.996094 55 C 61.199219 55.199219 61.398438 55.398438 61.597656 55.601562 C 61.796875 55.398438 61.996094 55.199219 62.199219 55 C 62.597656 55.398438 63.199219 55.800781 63.996094 55.800781 C 63.996094 55.601562 63.597656 55.398438 63.597656 55.199219 C 63.996094 55.398438 64.597656 55.398438 64.796875 55.398438 C 64.796875 55.199219 64.398438 55.199219 64.398438 55 C 66.398438 55 67.398438 53.199219 69.398438 53.398438 C 70.195312 53.398438 70.597656 54 70.597656 55 C 70.195312 54.800781 69.996094 54.601562 69.597656 54.601562 C 69.796875 59 69.996094 64.398438 70.195312 68.800781 C 70.195312 69.398438 69.996094 70.199219 70.195312 70.597656 C 70.398438 71 70.996094 71.199219 71.195312 71.597656 C 70.597656 71.597656 69.796875 71.597656 69.195312 71.597656 C 69.597656 70.800781 68.597656 70.597656 67.597656 70.800781 Z M 67.597656 70.800781 "/>
<path style=" stroke:none;fill-rule:nonzero;fill:rgb(60%,41.568627%,0%);fill-opacity:1;" d="M 65.398438 57.398438 C 63.996094 57.398438 62.796875 56.800781 61.996094 56.199219 C 61.398438 56.601562 60.398438 57.199219 59.398438 57.398438 C 58.398438 57.601562 57.597656 57.601562 56.996094 57 C 56.996094 57.199219 56.996094 57.398438 56.996094 57.800781 L 57.996094 58.601562 C 57.996094 58.199219 57.996094 58 57.996094 57.601562 C 59.796875 57.601562 61.199219 57.199219 62.199219 56.398438 C 62.597656 56.601562 62.996094 56.800781 63.398438 57 C 64.199219 57.398438 65.195312 57.601562 66.398438 57.601562 C 66.398438 60.199219 65.597656 62.398438 64.398438 64 L 64.597656 64 L 64.796875 63.800781 C 64.796875 64 64.796875 64 64.796875 64.199219 C 64.796875 63.601562 64.996094 63 65.398438 62.601562 C 65.398438 62.601562 65.398438 62.601562 65.597656 62.601562 C 65.597656 63.398438 66.195312 64.398438 65.996094 65.199219 C 65.996094 65.199219 65.996094 65.199219 65.996094 65 L 65.996094 65.199219 L 66.195312 65.398438 C 65.996094 65 65.996094 64.199219 65.996094 63.601562 C 65.996094 62.398438 65.796875 61.199219 65.996094 60.199219 C 65.996094 60.199219 65.996094 60.199219 66.195312 60.199219 C 66.195312 62 66.398438 64 66.398438 65.800781 L 67.398438 66.601562 C 67.398438 63.398438 67.195312 60.199219 66.996094 57 C 66.597656 57.199219 66.195312 57.398438 65.398438 57.398438 Z M 65.398438 57.398438 "/>
<path style=" stroke:none;fill-rule:nonzero;fill:rgb(60%,41.568627%,0%);fill-opacity:1;" d="M 71.597656 63.398438 C 71.597656 62.199219 71.597656 61 71.398438 59.800781 C 71.195312 57.800781 71.398438 55.800781 70.996094 54 C 70.597656 53.601562 69.996094 53.199219 69.398438 53.398438 C 67.796875 53.601562 66.398438 55.199219 64.796875 55 C 64.398438 54.398438 63.996094 53.601562 63.796875 52.398438 C 63.796875 51.800781 63.796875 51.398438 63.796875 50.800781 C 63.796875 49.800781 63.597656 49 62.996094 48.601562 C 62.597656 48.402344 61.796875 48.199219 61.199219 48.199219 C 60.996094 48.199219 60.796875 48.402344 60.597656 48.601562 C 59.796875 48.199219 58.597656 48 58.796875 49.199219 C 59.597656 48.800781 60.398438 49.800781 60.398438 50.601562 C 60.597656 52.199219 59.996094 54.199219 59.199219 54.800781 C 57.398438 54.800781 56.199219 53.398438 54.597656 53.199219 C 53.597656 53.199219 53.199219 53.601562 52.996094 54.199219 C 53.199219 53.800781 53.597656 53.398438 54.199219 53.398438 C 55.996094 53.199219 57.398438 55 59.199219 55 C 59.199219 55.199219 58.996094 55.199219 58.796875 55.398438 C 59.199219 55.398438 59.796875 55.398438 59.996094 55.199219 C 59.996094 55.398438 59.796875 55.601562 59.597656 55.800781 C 60.398438 55.800781 60.996094 55.398438 61.199219 55 C 61.398438 55.199219 61.597656 55.398438 61.796875 55.601562 C 61.996094 55.398438 62.199219 55.199219 62.398438 55 C 62.796875 55.398438 63.398438 55.800781 64.199219 55.800781 C 64.199219 55.601562 63.796875 55.398438 63.796875 55.199219 C 64.199219 55.398438 64.796875 55.398438 64.996094 55.398438 C 64.996094 55.199219 64.597656 55.199219 64.597656 55 C 66.597656 55 67.597656 53.199219 69.597656 53.398438 C 70.398438 53.398438 70.796875 54 70.796875 55 C 70.398438 54.800781 70.195312 54.601562 69.796875 54.601562 C 69.996094 59 70.195312 64.398438 70.398438 68.800781 C 70.398438 69 70.398438 69.199219 70.398438 69.398438 L 71.597656 70.398438 C 71.796875 68 71.796875 65.800781 71.597656 63.398438 Z M 71.597656 63.398438 "/>
<path style=" stroke:none;fill-rule:nonzero;fill:rgb(60%,41.568627%,0%);fill-opacity:1;" d="M 53.996094 55.199219 C 53.996094 55 53.996094 54.800781 53.996094 54.601562 C 53.796875 54.601562 53.597656 54.601562 53.398438 54.800781 Z M 53.996094 55.199219 "/>
<path style=" stroke:none;fill-rule:nonzero;fill:rgb(85.882353%,61.176471%,0%);fill-opacity:1;" d="M 54.199219 54.800781 C 53.996094 60 53.796875 65.199219 53.597656 70.199219 C 53.996094 70 54.398438 69.398438 54.796875 69.199219 C 54.996094 64.398438 55.199219 60.398438 55.398438 55.800781 C 54.996094 55.398438 54.597656 55 54.199219 54.800781 Z M 54.199219 54.800781 "/>
<path style=" stroke:none;fill-rule:nonzero;fill:rgb(60%,41.568627%,0%);fill-opacity:1;" d="M 54.199219 55.398438 L 55.398438 56.398438 C 55.398438 56.199219 55.398438 56 55.398438 55.800781 C 54.996094 55.398438 54.597656 55 54.199219 54.800781 C 54.199219 55 54.199219 55.199219 54.199219 55.398438 Z M 54.199219 55.398438 "/>
<path style=" stroke:none;fill-rule:nonzero;fill:rgb(85.882353%,61.176471%,0%);fill-opacity:1;" d="M 69.796875 54.800781 C 69.597656 55.199219 68.796875 55.398438 68.597656 55.800781 C 68.597656 56.199219 68.597656 57.199219 68.597656 57.601562 C 68.996094 61.199219 68.796875 65.199219 68.996094 69 C 69.195312 69.199219 69.398438 69.398438 69.597656 69.597656 C 69.796875 69.800781 69.996094 70.199219 70.195312 70 C 70.195312 65.199219 69.996094 59.398438 69.796875 54.800781 Z M 69.796875 54.800781 "/>
<path style=" stroke:none;fill-rule:nonzero;fill:rgb(60%,41.568627%,0%);fill-opacity:1;" d="M 69.796875 54.800781 C 69.597656 55.199219 68.796875 55.398438 68.597656 55.800781 C 68.597656 56.199219 68.597656 57.199219 68.597656 57.601562 C 68.796875 60.800781 68.796875 64.398438 68.996094 68 L 70.195312 69 C 70.195312 64.398438 69.996094 59.199219 69.796875 54.800781 Z M 69.796875 54.800781 "/>
<path style=" stroke:none;fill-rule:nonzero;fill:rgb(85.882353%,61.176471%,0%);fill-opacity:1;" d="M 55.199219 68.800781 C 55.398438 68.398438 55.996094 68.199219 56.199219 67.800781 C 56.398438 67.398438 56.199219 66.800781 56.199219 66.199219 C 56.398438 63.199219 56.597656 59.601562 56.597656 56.800781 C 56.199219 56.601562 55.996094 56.199219 55.597656 56 C 55.597656 60.199219 55.398438 64.601562 55.199219 68.800781 Z M 55.199219 68.800781 "/>
<path style=" stroke:none;fill-rule:nonzero;fill:rgb(60%,41.568627%,0%);fill-opacity:1;" d="M 55.597656 56.601562 L 56.597656 57.398438 C 56.597656 57.199219 56.597656 57 56.597656 56.800781 C 56.199219 56.601562 55.996094 56.199219 55.597656 56 C 55.796875 56.199219 55.597656 56.398438 55.597656 56.601562 Z M 55.597656 56.601562 "/>
<path style=" stroke:none;fill-rule:nonzero;fill:rgb(85.882353%,61.176471%,0%);fill-opacity:1;" d="M 67.398438 56.800781 C 67.597656 60.398438 67.597656 64.199219 67.796875 67.800781 C 67.996094 68 68.398438 68.398438 68.597656 68.597656 L 68.796875 68.800781 C 68.597656 64.601562 68.398438 60 68.195312 56.199219 C 67.996094 56.398438 67.597656 56.601562 67.398438 56.800781 Z M 67.398438 56.800781 "/>
<path style=" stroke:none;fill-rule:nonzero;fill:rgb(60%,41.568627%,0%);fill-opacity:1;" d="M 68.195312 56 C 67.996094 56.199219 67.597656 56.398438 67.398438 56.800781 C 67.597656 60.199219 67.597656 63.601562 67.796875 67 L 68.796875 67.800781 C 68.597656 63.800781 68.398438 59.601562 68.195312 56 Z M 68.195312 56 "/>
<path style=" stroke:none;fill-rule:nonzero;fill:rgb(85.882353%,61.176471%,0%);fill-opacity:1;" d="M 57.996094 57.601562 C 58.199219 61.398438 59.597656 64 61.996094 65.601562 C 64.398438 64 65.796875 61.398438 65.796875 57.601562 C 64.199219 57.601562 62.796875 57.199219 61.996094 56.398438 C 61.199219 57.199219 59.597656 57.601562 57.996094 57.601562 Z M 57.996094 57.601562 "/>
<path style=" stroke:none;fill-rule:nonzero;fill:rgb(60%,41.568627%,0%);fill-opacity:1;" d="M 57.996094 57.601562 C 57.996094 58 58.199219 58.199219 58.199219 58.601562 L 63.996094 63.601562 C 65.195312 62 65.796875 60 65.796875 57.601562 C 64.199219 57.601562 62.796875 57.199219 61.996094 56.398438 C 61.199219 57.199219 59.597656 57.601562 57.996094 57.601562 Z M 57.996094 57.601562 "/>
<path style=" stroke:none;fill-rule:nonzero;fill:rgb(85.882353%,61.176471%,0%);fill-opacity:1;" d="M 55.597656 71.199219 C 55.796875 71.199219 55.996094 71.398438 56.199219 71.398438 C 56.199219 71 55.796875 71 55.597656 71.199219 C 55.597656 71 55.597656 71.199219 55.597656 71.199219 Z M 55.597656 71.199219 "/>
<path style=" stroke:none;fill-rule:nonzero;fill:rgb(85.882353%,61.176471%,0%);fill-opacity:1;" d="M 67.796875 71.398438 C 67.996094 71.398438 68.195312 71.199219 68.398438 71.199219 C 68.398438 71 67.796875 71 67.796875 71.398438 Z M 67.796875 71.398438 "/>
<path style=" stroke:none;fill-rule:nonzero;fill:rgb(85.882353%,61.176471%,0%);fill-opacity:1;" d="M 57.398438 71.597656 C 57.199219 71.398438 56.996094 71.398438 56.597656 71.398438 C 56.796875 71.597656 57.199219 71.597656 57.398438 71.597656 Z M 57.398438 71.597656 "/>
<path style=" stroke:none;fill-rule:nonzero;fill:rgb(85.882353%,61.176471%,0%);fill-opacity:1;" d="M 66.597656 71.597656 C 66.796875 71.597656 67.398438 71.597656 67.398438 71.398438 C 66.996094 71.398438 66.597656 71.597656 66.597656 71.597656 Z M 66.597656 71.597656 "/>
<path style=" stroke:none;fill-rule:nonzero;fill:rgb(85.882353%,61.176471%,0%);fill-opacity:1;" d="M 64.398438 72 C 64.597656 72 64.996094 72 65.195312 72 C 65.195312 71.597656 64.597656 71.597656 64.398438 72 Z M 64.398438 72 "/>
<path style=" stroke:none;fill-rule:nonzero;fill:rgb(85.882353%,61.176471%,0%);fill-opacity:1;" d="M 59.597656 71.800781 C 59.398438 71.800781 58.796875 71.597656 58.796875 72 C 58.996094 71.800781 59.597656 72 59.597656 71.800781 Z M 59.597656 71.800781 "/>
<path style=" stroke:none;fill-rule:nonzero;fill:rgb(85.882353%,61.176471%,0%);fill-opacity:1;" d="M 60.796875 71.800781 C 60.597656 71.800781 59.996094 71.800781 59.996094 72 C 60.199219 72 60.597656 72 60.796875 71.800781 Z M 60.796875 71.800781 "/>
<path style=" stroke:none;fill-rule:nonzero;fill:rgb(85.882353%,61.176471%,0%);fill-opacity:1;" d="M 63.199219 72 C 63.398438 72 63.597656 72 63.996094 72.199219 C 63.996094 71.800781 63.398438 71.800781 63.199219 72 Z M 63.199219 72 "/>
<path style=" stroke:none;fill-rule:nonzero;fill:rgb(96.078431%,99.607843%,100%);fill-opacity:1;" d="M 69.195312 73.398438 C 68.597656 73.398438 68.796875 72.398438 68.398438 72.199219 C 68.195312 72.199219 67.996094 72.199219 67.796875 72.398438 C 68.398438 72 68.597656 73 68.597656 73.597656 C 68.398438 73.597656 68.398438 73.398438 68.195312 73.398438 C 67.796875 73.398438 67.796875 73.800781 67.398438 73.800781 C 67.398438 73.597656 67.195312 73.597656 66.796875 73.597656 C 66.597656 73.398438 66.796875 73 66.597656 73 C 66.597656 73.199219 66.796875 73.398438 66.796875 73.597656 C 66.597656 73.800781 66.597656 73.800781 66.597656 74 C 66.597656 74 66.398438 74 66.195312 74 C 66.195312 73.800781 66.195312 73.597656 65.996094 73.597656 C 65.996094 73.800781 65.597656 73.800781 65.796875 74 C 65.796875 74 65.996094 74 66.195312 74.199219 C 66.195312 74.398438 65.996094 74.398438 65.996094 74.597656 C 66.195312 74.597656 66.195312 74.398438 66.398438 74.199219 C 66.796875 74.199219 67.195312 74 67.398438 74.199219 C 67.597656 74.199219 67.597656 73.800781 67.796875 73.800781 C 68.195312 74.199219 68.597656 73.597656 68.796875 73.597656 C 68.996094 73.597656 69.195312 73.597656 69.398438 73.597656 L 69.398438 73.398438 C 69.195312 73.199219 69.398438 73.398438 69.195312 73.398438 Z M 65.796875 74 C 65.796875 73.800781 65.796875 73.800781 65.996094 73.800781 C 65.996094 74 65.996094 74 65.996094 74 C 65.996094 74 65.996094 74.199219 65.796875 74 Z M 66.796875 74 C 66.796875 73.800781 66.796875 73.800781 66.796875 73.597656 C 66.996094 73.597656 66.996094 73.800781 66.796875 74 Z M 67.398438 73.800781 L 67.195312 73.800781 C 66.796875 73.597656 67.398438 73.398438 67.398438 73.800781 Z M 67.195312 74 C 67.195312 73.800781 67.398438 73.800781 67.398438 73.800781 C 67.398438 74 67.195312 74.199219 67.195312 74 Z M 67.796875 73.800781 C 67.796875 73.398438 68.195312 73.398438 68.398438 73.597656 C 68.398438 73.800781 67.996094 73.800781 67.796875 73.800781 Z M 67.796875 73.800781 "/>
<path style=" stroke:none;fill-rule:nonzero;fill:rgb(96.078431%,99.607843%,100%);fill-opacity:1;" d="M 55.796875 72.597656 C 55.796875 72.398438 55.796875 72.398438 55.796875 72.597656 C 55.597656 72.398438 55.597656 72.398438 55.398438 72.398438 C 55.398438 72.597656 55.398438 72.398438 55.398438 72.597656 C 55.597656 72.597656 55.597656 72.597656 55.796875 72.597656 Z M 55.796875 72.597656 "/>
<path style=" stroke:none;fill-rule:nonzero;fill:rgb(96.078431%,99.607843%,100%);fill-opacity:1;" d="M 55.597656 72.800781 C 55.597656 72.800781 55.398438 72.800781 55.199219 72.800781 C 55.398438 73 55.398438 73 55.597656 72.800781 Z M 55.597656 72.800781 "/>
<path style=" stroke:none;fill-rule:nonzero;fill:rgb(96.078431%,99.607843%,100%);fill-opacity:1;" d="M 63.597656 73.398438 L 63.597656 73.199219 C 63.597656 73.199219 63.597656 73.199219 63.398438 73.199219 C 63.398438 73.199219 63.398438 73.398438 63.597656 73.398438 C 63.398438 73.398438 63.597656 73.398438 63.597656 73.398438 Z M 63.597656 73.398438 "/>
<path style=" stroke:none;fill-rule:nonzero;fill:rgb(96.078431%,99.607843%,100%);fill-opacity:1;" d="M 58.996094 74.597656 C 58.796875 74.398438 58.796875 74.199219 58.597656 74 C 58.996094 73.800781 58.796875 73.199219 58.597656 73.199219 C 58.398438 73.199219 58.398438 73.398438 58.199219 73.398438 C 58.199219 73.597656 58.398438 73.597656 58.398438 73.800781 C 58.199219 73.800781 57.796875 74 57.597656 73.800781 C 57.597656 73.597656 57.597656 73.398438 57.398438 73.398438 C 57.398438 73.597656 57.597656 74 57.199219 74.199219 C 57.398438 74.199219 57.398438 74 57.597656 74 C 57.796875 74.199219 58.199219 74 58.398438 74 C 58.796875 74.199219 58.796875 74.800781 58.996094 74.597656 C 59.398438 74.597656 59.398438 73.597656 59.199219 73.199219 C 59.199219 73.597656 59.597656 74.597656 58.996094 74.597656 Z M 58.199219 73.800781 C 58.199219 73.199219 58.996094 73.800781 58.398438 74 Z M 58.199219 73.800781 "/>
<path style=" stroke:none;fill-rule:nonzero;fill:rgb(96.078431%,99.607843%,100%);fill-opacity:1;" d="M 59.796875 74.398438 C 59.796875 74 59.996094 73.398438 59.796875 73.199219 C 59.796875 73.398438 59.597656 74 59.796875 74.398438 Z M 59.796875 74.398438 "/>
<path style=" stroke:none;fill-rule:nonzero;fill:rgb(96.078431%,99.607843%,100%);fill-opacity:1;" d="M 64.597656 73.597656 C 64.398438 73.800781 64.796875 73.800781 64.597656 74 C 64.597656 74.199219 64.398438 74.199219 64.199219 74.199219 C 63.796875 74 64.199219 73.199219 63.996094 73 C 63.996094 73.199219 64.199219 73.597656 63.996094 74 C 63.796875 74 63.597656 74 63.597656 74.199219 C 63.996094 74.199219 64.398438 74.199219 64.796875 74.199219 C 64.796875 74.199219 64.996094 73.597656 64.597656 73.597656 Z M 64.597656 73.597656 "/>
<path style=" stroke:none;fill-rule:nonzero;fill:rgb(96.078431%,99.607843%,100%);fill-opacity:1;" d="M 63.796875 73.597656 C 63.796875 73.398438 63.597656 73.597656 63.597656 73.597656 C 63.199219 73.597656 63.796875 73.800781 63.796875 73.597656 Z M 63.796875 73.597656 "/>
<path style=" stroke:none;fill-rule:nonzero;fill:rgb(96.078431%,99.607843%,100%);fill-opacity:1;" d="M 65.195312 73.597656 C 64.996094 73.800781 65.398438 74 65.398438 74.199219 C 65.398438 74.398438 65.195312 74.398438 65.195312 74.597656 C 65.398438 74.597656 65.597656 73.800781 65.195312 73.597656 Z M 65.398438 74.199219 C 65.195312 74.199219 65.195312 74 65.195312 74 C 65.195312 73.800781 65.398438 74 65.398438 74.199219 Z M 65.398438 74.199219 "/>
<path style=" stroke:none;fill-rule:nonzero;fill:rgb(96.078431%,99.607843%,100%);fill-opacity:1;" d="M 68.796875 73.800781 C 68.996094 73.800781 69.195312 74 69.195312 73.800781 C 68.996094 73.800781 68.796875 73.597656 68.796875 73.800781 Z M 68.796875 73.800781 "/>
<path style=" stroke:none;fill-rule:nonzero;fill:rgb(96.078431%,99.607843%,100%);fill-opacity:1;" d="M 62.597656 74.398438 L 62.398438 74.398438 C 62.398438 74.199219 62.398438 74 62.199219 74 C 61.796875 74.199219 61.199219 74 60.796875 73.800781 C 60.796875 74 60.996094 74.199219 60.597656 74.398438 C 60.398438 74.398438 60.398438 74 60.199219 74 C 59.996094 74.199219 60.398438 74.398438 60.398438 74.398438 C 60.398438 74.597656 60.199219 74.800781 59.996094 75 C 60.199219 75 60.398438 74.597656 60.597656 74.398438 C 61.199219 74.398438 61.199219 74.398438 61.796875 74.398438 C 61.796875 74.597656 61.996094 74.597656 62.199219 74.800781 C 62.398438 74.800781 62.398438 74.398438 62.398438 74.398438 C 62.796875 74.398438 62.996094 74.398438 63.199219 74.199219 C 63.199219 73.800781 62.597656 74 62.597656 74.398438 Z M 61.996094 74.800781 C 61.796875 74.800781 61.796875 74.597656 61.796875 74.398438 C 61.597656 74.398438 61.199219 74.398438 60.996094 74.398438 C 60.996094 73.597656 61.796875 74.398438 62.199219 74 C 62.398438 74.398438 62.199219 74.597656 61.996094 74.800781 Z M 62.796875 74.398438 C 62.597656 74.199219 62.996094 74 62.996094 74.199219 C 62.996094 74.398438 62.996094 74.398438 62.796875 74.398438 Z M 62.796875 74.398438 "/>
<path style=" stroke:none;fill-rule:nonzero;fill:rgb(96.078431%,99.607843%,100%);fill-opacity:1;" d="M 55.597656 74.398438 L 55.597656 74.199219 C 55.597656 74.199219 55.597656 74 55.398438 74.199219 C 55.398438 74 55.398438 74.199219 55.597656 74.398438 Z M 55.597656 74.398438 "/>
<path style=" stroke:none;fill-rule:nonzero;fill:rgb(96.078431%,99.607843%,100%);fill-opacity:1;" d="M 55.796875 74.398438 C 55.996094 74.597656 56.199219 74.398438 56.199219 74.199219 C 55.996094 74 55.796875 74.199219 55.796875 74.398438 Z M 55.796875 74.398438 "/>
<path style=" stroke:none;fill-rule:nonzero;fill:rgb(96.078431%,99.607843%,100%);fill-opacity:1;" d="M 56.398438 74.398438 L 56.597656 74.398438 C 56.597656 74 56.199219 74.199219 56.398438 74.398438 Z M 56.398438 74.398438 "/>
<path style=" stroke:none;fill-rule:nonzero;fill:rgb(96.078431%,99.607843%,100%);fill-opacity:1;" d="M 63.996094 74.597656 C 63.796875 74.597656 63.796875 75 63.996094 75 Z M 63.996094 74.597656 "/>
<path style=" stroke:none;fill-rule:nonzero;fill:rgb(96.078431%,99.607843%,100%);fill-opacity:1;" d="M 64.199219 74.800781 C 64.199219 75 64.398438 75 64.398438 75 C 64.796875 74.800781 64.199219 74.398438 64.199219 74.800781 Z M 64.199219 74.800781 "/>
<path style=" stroke:none;fill-rule:nonzero;fill:rgb(96.078431%,99.607843%,100%);fill-opacity:1;" d="M 56.996094 73.398438 C 57.398438 74 56.597656 74.199219 56.398438 73.800781 C 56.398438 73.597656 56.597656 73.597656 56.597656 73.398438 C 56.398438 73.398438 56.398438 73.800781 56.398438 73.800781 C 55.597656 73.800781 56.199219 72.800781 56.199219 72.398438 C 56.199219 72.398438 56.199219 72.398438 55.996094 72.398438 C 55.996094 72.800781 55.796875 73.199219 55.398438 73.398438 C 55.398438 73.800781 55.796875 73.800781 56.199219 74 C 56.398438 74.199219 56.796875 74.199219 56.996094 74.199219 C 56.996094 73.800781 57.398438 73.398438 56.996094 73.398438 Z M 56.996094 73.398438 "/>
</g>
</svg>
