<?xml version="1.0" encoding="UTF-8"?>
<svg xmlns="http://www.w3.org/2000/svg" xmlns:xlink="http://www.w3.org/1999/xlink" width="px" height="px" viewBox="0 0 124 124" version="1.1">
<g id="surface1">
<path style=" stroke:none;fill-rule:nonzero;fill:rgb(16.862745%,27.843137%,61.568627%);fill-opacity:1;" d="M 124 92.398438 C 124 99.199219 118.601562 104 112 104 L 12 104 C 5.398438 104 0 99.199219 0 92.398438 L 0 31.601562 C 0 24.800781 5.398438 20 12 20 L 112 20 C 118.601562 20 124 24.800781 124 31.601562 Z M 124 92.398438 "/>
<path style=" stroke:none;fill-rule:nonzero;fill:rgb(9.411765%,21.960784%,52.941176%);fill-opacity:1;" d="M 12 20 L 112 20 C 118.601562 20 124 24.800781 124 31.601562 L 124 92.398438 C 124 99.199219 117.601562 104 111 104 "/>
<path style=" stroke:none;fill-rule:nonzero;fill:rgb(4.313725%,18.431373%,46.666667%);fill-opacity:1;" d="M 12 20 L 112 20 C 118.601562 20 124 24.800781 124 31.601562 L 124 54 "/>
<path style=" stroke:none;fill-rule:nonzero;fill:rgb(4.313725%,18.431373%,46.666667%);fill-opacity:1;" d="M 124 92.199219 C 124 99.601562 118.601562 104 112 104 L 12 104 C 5.398438 104 0 98.800781 0 92 "/>
<path style=" stroke:none;fill-rule:nonzero;fill:rgb(97.254902%,81.960784%,18.039216%);fill-opacity:1;" d="M 61.800781 31.199219 L 62.800781 34 L 65.800781 34 L 63.398438 35.601562 L 64.199219 38.601562 L 61.800781 36.601562 L 59.398438 38.398438 L 60.199219 35.601562 L 57.800781 34 L 60.800781 34 Z M 61.800781 31.199219 "/>
<path style=" stroke:none;fill-rule:nonzero;fill:rgb(97.254902%,81.960784%,18.039216%);fill-opacity:1;" d="M 61.800781 85.199219 L 62.800781 88 L 65.800781 88 L 63.398438 90 L 64.199219 93 L 61.800781 91.199219 L 59.398438 93 L 60.199219 90 L 57.800781 88 L 60.800781 88 Z M 61.800781 85.199219 "/>
<path style=" stroke:none;fill-rule:nonzero;fill:rgb(97.254902%,81.960784%,18.039216%);fill-opacity:1;" d="M 76.800781 35.199219 L 77.800781 38 L 80.800781 38 L 78.398438 40.199219 L 79.199219 43.199219 L 76.800781 41.398438 L 74.398438 43.199219 L 75.199219 40 L 72.800781 38 L 75.800781 38 Z M 76.800781 35.199219 "/>
<path style=" stroke:none;fill-rule:nonzero;fill:rgb(97.254902%,81.960784%,18.039216%);fill-opacity:1;" d="M 87 45.199219 L 88 48 L 91 48 L 88.601562 50.199219 L 89.398438 53.199219 L 87 51.601562 L 84.601562 53.398438 L 85.601562 50.199219 L 83 48 L 86 48 Z M 87 45.199219 "/>
<path style=" stroke:none;fill-rule:nonzero;fill:rgb(97.254902%,81.960784%,18.039216%);fill-opacity:1;" d="M 87.199219 71.199219 L 88.199219 74 L 91.199219 74 L 88.800781 76 L 89.800781 78.800781 L 87.199219 77 L 84.800781 79 L 85.800781 75.800781 L 83.199219 74 L 86.398438 74 Z M 87.199219 71.199219 "/>
<path style=" stroke:none;fill-rule:nonzero;fill:rgb(97.254902%,81.960784%,18.039216%);fill-opacity:1;" d="M 37 45.199219 L 37.800781 48 L 41 48 L 38.398438 50.199219 L 39.398438 53.199219 L 37 51.601562 L 34.398438 53.398438 L 35.398438 50.199219 L 33 48 L 36 48 Z M 37 45.199219 "/>
<path style=" stroke:none;fill-rule:nonzero;fill:rgb(97.254902%,81.960784%,18.039216%);fill-opacity:1;" d="M 89.398438 57.199219 L 90.398438 60 L 93.398438 60 L 91 62.199219 L 91.800781 65.398438 L 89.398438 63.601562 L 87 65.601562 L 87.800781 62.199219 L 85.398438 60 L 88.398438 60 Z M 89.398438 57.199219 "/>
<path style=" stroke:none;fill-rule:nonzero;fill:rgb(97.254902%,81.960784%,18.039216%);fill-opacity:1;" d="M 34.601562 57.199219 L 35.601562 60 L 38.601562 60 L 36.199219 62.199219 L 37 65.398438 L 34.601562 63.601562 L 32.199219 65.601562 L 33 62.199219 L 30.601562 60 L 33.601562 60 Z M 34.601562 57.199219 "/>
<path style=" stroke:none;fill-rule:nonzero;fill:rgb(97.254902%,81.960784%,18.039216%);fill-opacity:1;" d="M 36.601562 71.199219 L 37.601562 74 L 40.601562 74 L 38.199219 76 L 39 78.800781 L 36.601562 77 L 34.199219 79 L 35 75.800781 L 32.601562 74 L 35.601562 74 Z M 36.601562 71.199219 "/>
<path style=" stroke:none;fill-rule:nonzero;fill:rgb(97.254902%,81.960784%,18.039216%);fill-opacity:1;" d="M 77.199219 81.199219 L 78.199219 84 L 81.199219 84 L 78.800781 86.199219 L 79.800781 89.199219 L 77.199219 87.601562 L 74.800781 89.398438 L 75.800781 86.199219 L 73.199219 84 L 76.199219 84 Z M 77.199219 81.199219 "/>
<path style=" stroke:none;fill-rule:nonzero;fill:rgb(97.254902%,81.960784%,18.039216%);fill-opacity:1;" d="M 47.199219 35.199219 L 48.199219 38 L 51.199219 38 L 48.800781 40.199219 L 49.800781 43.199219 L 47.199219 41.398438 L 44.800781 43.199219 L 45.800781 40 L 43.199219 38 L 46.398438 38 Z M 47.199219 35.199219 "/>
<path style=" stroke:none;fill-rule:nonzero;fill:rgb(97.254902%,81.960784%,18.039216%);fill-opacity:1;" d="M 46.199219 81.199219 L 47.199219 84 L 50.199219 84 L 47.601562 86 L 48.601562 89.199219 L 46.199219 87.398438 L 43.800781 89.199219 L 44.601562 86 L 42.199219 84 L 45.199219 84 Z M 46.199219 81.199219 "/>
</g>
</svg>
