<?xml version="1.0" encoding="UTF-8"?>
<svg xmlns="http://www.w3.org/2000/svg" xmlns:xlink="http://www.w3.org/1999/xlink" width="px" height="px" viewBox="0 0 124 124" version="1.1">
<g id="surface1">
<path style=" stroke:none;fill-rule:nonzero;fill:rgb(0%,60%,40%);fill-opacity:1;" d="M 124 92.398438 C 124 99.199219 118.601562 104.601562 112 104.601562 L 12 104.601562 C 5.398438 104.601562 0 99.199219 0 92.398438 L 0 31.601562 C 0 24.800781 5.398438 19.398438 12 19.398438 L 112 19.398438 C 118.601562 19.398438 124 24.800781 124 31.601562 Z M 124 92.398438 "/>
<path style=" stroke:none;fill-rule:nonzero;fill:rgb(1.176471%,55.686275%,36.078431%);fill-opacity:1;" d="M 12 19.398438 L 112 19.398438 C 118.601562 19.398438 124 24.800781 124 31.601562 L 124 92.398438 C 124 99.199219 118.601562 104.601562 112 104.601562 "/>
<path style=" stroke:none;fill-rule:nonzero;fill:rgb(0%,47.843137%,32.941176%);fill-opacity:1;" d="M 124 92.398438 C 124 99.199219 118.601562 104.601562 112 104.601562 L 12 104.601562 C 5.398438 104.601562 0 99.199219 0 92.398438 "/>
<path style=" stroke:none;fill-rule:nonzero;fill:rgb(0%,47.843137%,32.941176%);fill-opacity:1;" d="M 12 19.398438 L 112 19.398438 C 118.601562 19.398438 124 24.800781 124 31.601562 L 124 53.800781 "/>
<path style=" stroke:none;fill-rule:nonzero;fill:rgb(100%,100%,100%);fill-opacity:1;" d="M 15.199219 38.800781 C 16 38.199219 16 39.800781 15.199219 41.601562 C 15.601562 41 16.398438 39.601562 16.199219 38.601562 C 16 37.199219 15.199219 37.398438 14.601562 38.199219 C 14.199219 38.800781 14.398438 39.199219 15.199219 38.800781 Z M 15.199219 38.800781 "/>
<path style=" stroke:none;fill-rule:nonzero;fill:rgb(100%,100%,100%);fill-opacity:1;" d="M 15.398438 50.199219 C 16.398438 48.398438 16 47 16.800781 44.398438 C 17.398438 42.800781 17.398438 44 17.398438 45 C 17 47.601562 17.199219 51.800781 20.800781 51.601562 C 21 54 21.601562 58.199219 21.601562 59.800781 C 21.601562 61.199219 21.800781 60.800781 22.199219 60 C 22.601562 59.199219 22.398438 58.199219 22.398438 57 C 22.398438 55.800781 22.199219 53.601562 22 50.601562 C 22.398438 50.199219 23 49.601562 23.199219 49.199219 C 23.601562 48.199219 23.800781 48.398438 24 49.199219 C 24.398438 50.800781 26 51.800781 28 50.199219 C 30 48.800781 29.199219 46 28.199219 43 C 29 43.199219 29.199219 42.601562 28.800781 41.800781 C 28.601562 41.398438 28.199219 41 28 40.601562 C 27.601562 40.199219 27.398438 39.800781 27 40.199219 C 26.601562 40.601562 26.398438 41 26.199219 41.199219 C 26 41.398438 26 41.800781 26.199219 42.398438 C 27 44.199219 27.398438 46.199219 27.601562 47.199219 C 27.800781 48.199219 27.398438 48.398438 26.601562 48.398438 C 26 48.398438 25 48.199219 24.601562 46.601562 C 24.199219 45 24 44.398438 24.199219 43.199219 C 24.199219 42.199219 24.398438 41.398438 23.601562 40.398438 C 22.800781 39.398438 22.800781 39.601562 22.601562 40 C 22.398438 40.601562 22.199219 41.398438 22.398438 42.398438 C 22.800781 43.800781 23 45 23.199219 45.800781 C 23.398438 46.398438 22.800781 47.601562 21.800781 48.199219 C 21.601562 46.199219 21.398438 43.800781 21.199219 41.601562 C 22.398438 41.199219 21.800781 39.800781 20.800781 38.199219 C 20.199219 37 19.800781 37.398438 19.398438 38.199219 C 19 39 19.199219 39.398438 19.601562 40 C 19.398438 40.601562 19.800781 41.398438 20 42.800781 C 20.199219 43.800781 20.398438 46.398438 20.398438 48.601562 C 19.601562 48.601562 19 48 18.601562 47.199219 C 18 45.601562 18 44 18.398438 43.199219 C 18.800781 42.199219 19 40.800781 18.398438 40.398438 C 17.800781 40 17.199219 40.398438 16.800781 41.199219 C 16 42.398438 15.199219 44 15.199219 45.800781 C 15.199219 46.398438 15 47.800781 14.601562 48.398438 C 14.398438 49 13.800781 49 13.398438 48.199219 C 12.601562 47 12.398438 43.800781 12.398438 42.199219 C 12.398438 41.398438 12.199219 41.199219 12 42.199219 C 11.199219 45.398438 12.199219 48.601562 12.800781 50 C 13.800781 51.800781 14.800781 51.398438 15.398438 50.199219 Z M 15.398438 50.199219 "/>
<path style=" stroke:none;fill-rule:nonzero;fill:rgb(100%,100%,100%);fill-opacity:1;" d="M 25 39.800781 C 25.398438 39.398438 25.398438 39.398438 25.601562 39.800781 C 25.800781 40.199219 26.398438 40.199219 26.601562 39.800781 C 26.800781 39.398438 27 39.199219 26.800781 38.601562 C 26.601562 38.199219 26.601562 38.398438 26.398438 38.800781 C 26.199219 39.601562 25.398438 39.398438 25.398438 38.398438 C 25.398438 37.398438 25.199219 38 24.800781 38.601562 C 24.398438 39.601562 23.800781 39.398438 23.800781 38.398438 C 23.800781 37.800781 23.601562 37.199219 23.199219 38 C 23 38.601562 23.199219 39.199219 23.398438 39.601562 C 24 40.199219 24.601562 40.199219 25 39.800781 Z M 25 39.800781 "/>
<path style=" stroke:none;fill-rule:nonzero;fill:rgb(100%,100%,100%);fill-opacity:1;" d="M 19 54.800781 C 19.601562 54.601562 19.601562 54.601562 19.601562 53.800781 C 19.601562 53 19.199219 53.398438 18.398438 53.601562 C 17.199219 54 14.800781 55.199219 13 57.398438 C 12.199219 58.398438 12.800781 58 13.398438 57.601562 C 14.398438 56.800781 17.398438 55.199219 19 54.800781 Z M 19 54.800781 "/>
<path style=" stroke:none;fill-rule:nonzero;fill:rgb(100%,100%,100%);fill-opacity:1;" d="M 15 67.601562 C 14.398438 68.601562 13.199219 67.199219 14 64.601562 C 14.199219 64 14.398438 63.601562 14.398438 63.199219 C 14.398438 62.800781 14.398438 62.398438 14.398438 61.800781 C 14.398438 61.398438 14 62 13.800781 62.800781 C 13.601562 64 12.800781 64.601562 13 68.398438 C 13.199219 70.601562 15.800781 70.601562 16 67.800781 C 16 66.601562 15.601562 66.601562 15 67.601562 Z M 15 67.601562 "/>
<path style=" stroke:none;fill-rule:nonzero;fill:rgb(100%,100%,100%);fill-opacity:1;" d="M 32.800781 59.199219 C 32.800781 58.199219 32.601562 57.199219 32.601562 56.199219 C 32.800781 56.199219 32.800781 56 33 56 C 33.601562 57.800781 36.199219 57.398438 37 56.199219 C 37.398438 55.601562 37.398438 55.601562 37.800781 56.199219 C 38.398438 57 40.398438 57.398438 40.800781 56.199219 C 41.199219 55 41.199219 53.800781 41 53 C 40.800781 52 40.601562 52.199219 40 52.601562 C 39.398438 53 39.800781 53.199219 40 53.800781 C 40.199219 56.199219 38.199219 56 38 53.601562 C 37.800781 52 37.601562 52.601562 37.398438 53.398438 C 36.398438 56.398438 33.800781 57 34.199219 53.398438 C 34.199219 52.398438 33.601562 52.800781 33.199219 53.199219 C 33 53.398438 32.601562 53.800781 32.398438 54 C 32.199219 51.199219 32 48 31.601562 44 C 32.398438 45 33.199219 43.800781 32.601562 42.800781 C 32.199219 42 31.601562 40 31.199219 39 C 30.800781 38 30.601562 38.199219 29.800781 39.199219 C 29 40 29.199219 40.199219 29.398438 41.199219 C 29.398438 42.398438 29.398438 43.398438 29.800781 45.601562 C 30 47.199219 30.398438 50.601562 30.800781 54.800781 C 30.398438 55 29.800781 55.398438 29.398438 55.601562 C 29.199219 54.800781 28.601562 54.398438 27.800781 53.601562 C 26.601562 52.398438 25.800781 52.398438 24.800781 53.800781 C 23.800781 55.199219 24 55.398438 24 56.800781 C 24 58 23.800781 58.398438 24.800781 58.800781 C 25.800781 59.199219 26.199219 59 26.800781 58.800781 C 27.199219 58.601562 27.800781 58.398438 28.601562 58.199219 C 28.800781 58.800781 28.601562 59.601562 28.199219 60 C 25.800781 62.800781 22.199219 65 20.601562 63 C 19.800781 62 19.398438 60.398438 19.601562 58.398438 C 19.800781 56.800781 19.398438 57.601562 19.199219 58 C 18.601562 59.800781 18.398438 62.601562 19.199219 64 C 20.199219 66 22 66.800781 24.800781 65.398438 C 27.601562 64.199219 30.199219 62 30.199219 59 C 30.199219 58.398438 30.199219 58 30.199219 57.601562 C 30.601562 57.398438 31 57.199219 31.199219 57 C 31.199219 58 31.199219 59.398438 31.199219 60.398438 C 31.398438 63.601562 30 64.601562 28.800781 65.601562 C 27.199219 66.800781 25 67.800781 23 68 C 18.601562 68.601562 17.601562 65.800781 17.601562 62 C 17.601562 61.398438 17.800781 61 17.800781 60.199219 C 17.800781 58.601562 17.601562 58.800781 17 60.398438 C 16.601562 62 16 65.601562 17.398438 68.601562 C 19 71.601562 24.199219 70.800781 28.199219 68.800781 C 32.601562 66.601562 33 63 32.800781 59.199219 Z M 27.199219 56.199219 C 26.199219 56.601562 25.800781 56 26 55.398438 C 26 54.800781 26.199219 54.398438 27 54.800781 C 27.398438 55 27.800781 55.398438 28.199219 56 C 27.601562 56.199219 27.398438 56.199219 27.199219 56.199219 Z M 27.199219 56.199219 "/>
<path style=" stroke:none;fill-rule:nonzero;fill:rgb(100%,100%,100%);fill-opacity:1;" d="M 37.398438 62.601562 C 37.800781 61.800781 38 61 37.800781 60 C 37.601562 59.398438 37.800781 59.199219 37.199219 58.800781 C 36.601562 58.601562 36.398438 59 36.199219 59.398438 C 36 60 36.398438 60.800781 37.199219 60.398438 C 37.398438 60.800781 37.199219 61.800781 37 62.398438 C 36.800781 63.199219 37 63.398438 37.398438 62.601562 Z M 37.398438 62.601562 "/>
<path style=" stroke:none;fill-rule:nonzero;fill:rgb(100%,100%,100%);fill-opacity:1;" d="M 39 46.398438 C 38.199219 47.398438 37.601562 48.800781 38.800781 49.601562 C 39.398438 50 40.601562 49.398438 41 48.601562 C 41.398438 47.601562 41.199219 47.398438 40.398438 48.398438 C 39.398438 49.601562 38.199219 48.601562 39.398438 46.800781 C 40.199219 45.601562 39.601562 45.398438 39 46.398438 Z M 39 46.398438 "/>
<path style=" stroke:none;fill-rule:nonzero;fill:rgb(100%,100%,100%);fill-opacity:1;" d="M 35.601562 46.601562 C 38.398438 45.398438 40 43.800781 40.800781 42.398438 C 41.601562 42.601562 41.800781 42 41.398438 41.398438 C 41.601562 40.800781 41.800781 40.398438 42 40 C 42.601562 37.398438 40 37.199219 39.398438 39.199219 C 39 40.199219 39 41.199219 39.800781 41.800781 C 38.601562 43.398438 37 44.800781 35 46 C 34.199219 46.800781 34.398438 47.199219 35.601562 46.601562 Z M 40.398438 39.601562 C 40.601562 39 41 39.398438 41 39.800781 C 41 40 40.800781 40.398438 40.601562 40.601562 C 40.199219 40.398438 40.199219 40 40.398438 39.601562 Z M 40.398438 39.601562 "/>
<path style=" stroke:none;fill-rule:nonzero;fill:rgb(81.176471%,90.588235%,90.980392%);fill-opacity:1;" d="M 39.398438 39.199219 C 39 40.199219 39 41.199219 39.800781 41.800781 C 39.601562 42 39.398438 42.398438 39.199219 42.601562 L 40.199219 43.398438 C 40.398438 43 40.800781 42.800781 41 42.398438 C 41.800781 42.601562 42 42 41.601562 41.398438 C 41.800781 40.800781 42 40.398438 42.199219 40 C 42.601562 37.398438 40.199219 37.199219 39.398438 39.199219 Z M 41 39.800781 C 41 40 40.800781 40.398438 40.601562 40.601562 C 40.199219 40.398438 40.199219 40 40.398438 39.601562 C 40.601562 39 41 39.398438 41 39.800781 Z M 41 39.800781 "/>
<path style=" stroke:none;fill-rule:nonzero;fill:rgb(100%,100%,100%);fill-opacity:1;" d="M 42.398438 62.601562 C 42 62.800781 41.398438 63.398438 41 63.800781 C 41 63 41.199219 61.800781 41.199219 61.398438 C 41.199219 60.800781 41 60.601562 40.601562 61.199219 C 40 62.398438 39.398438 64 39.199219 65.199219 C 36.601562 67 33.398438 68.800781 31.199219 69.800781 C 30.199219 70.199219 30.800781 70.601562 31.601562 70.398438 C 34.601562 69.398438 37 68.601562 39.199219 67.601562 C 39.398438 69.398438 40 70.601562 41.601562 71 C 44.601562 71.800781 47.601562 69.199219 51 64.601562 C 51.800781 66.800781 53.800781 69.800781 59 70.601562 C 61.199219 71 61 70.800781 61.398438 69.601562 C 61.601562 68.601562 62 68.398438 60.199219 68 C 58 67.199219 57.199219 65.601562 59.398438 64.601562 C 61.601562 63.601562 64.601562 62.800781 66.601562 62.398438 C 68 62.199219 68.398438 62.199219 68.800781 61 C 69.199219 59.601562 69.398438 59.398438 68 59.601562 C 66.398438 59.800781 58.800781 60 56.800781 59.800781 C 58.398438 59 60.601562 58.199219 62.199219 57.601562 C 62.800781 58 63 57.800781 62.800781 57.398438 C 63.398438 57.199219 64 57 64.601562 56.601562 C 66.398438 55.601562 67.199219 53.398438 65.199219 52 C 63.199219 50.601562 61.601562 50.199219 60.601562 51.601562 C 59.800781 52.800781 59 54 60.199219 55.601562 C 58.398438 56.199219 56.800781 56.800781 55.199219 57.398438 C 54 57.800781 53.398438 58 53 59.601562 C 52.601562 61.199219 52.398438 61.199219 54 61.398438 C 56.199219 61.398438 58.199219 61.398438 59.601562 62.601562 C 57.398438 63.398438 55.800781 65 56.601562 67.199219 C 55.601562 67 54.601562 66.601562 53.800781 65.800781 C 52.199219 64.199219 52.199219 61.398438 51.601562 58.199219 C 51 55 49.601562 52.199219 49 51 C 48.601562 49.800781 48.398438 50.398438 48 51.199219 C 47.601562 52 47.199219 52.398438 47.601562 53.601562 C 48.398438 55.601562 49.601562 59.601562 50.199219 62 C 49 64.800781 45.800781 68.199219 43.199219 68.601562 C 41.199219 69 40.601562 67.800781 40.800781 66.800781 C 42.199219 66 43.398438 65 44.601562 63.800781 C 47 61.199219 47.398438 59.199219 45.800781 55 C 46.800781 55.199219 46.601562 54.398438 45.199219 52.601562 C 44.199219 51.398438 44 51.601562 43.398438 52.800781 C 43 53.800781 42.601562 54.601562 43.800781 55 C 44 55.601562 44.398438 56.398438 45 57.398438 C 46.199219 60 44.199219 61 42.398438 62.601562 Z M 61.398438 53.800781 C 61.398438 53.199219 61.601562 53.199219 62.601562 53.800781 C 63.601562 54.398438 64.398438 54.601562 63 54.800781 C 62.601562 55 62 55 61.601562 55.199219 C 61.601562 54.601562 61.601562 54.199219 61.398438 53.800781 Z M 61.398438 53.800781 "/>
<path style=" stroke:none;fill-rule:nonzero;fill:rgb(81.176471%,90.588235%,90.980392%);fill-opacity:1;" d="M 67.800781 59.601562 C 66.800781 59.601562 62.398438 59.800781 59.398438 59.800781 L 63.398438 63.199219 C 64.398438 62.800781 65.601562 62.601562 66.398438 62.398438 C 67.800781 62.199219 68.199219 62.199219 68.601562 61 C 69 59.601562 69.199219 59.398438 67.800781 59.601562 Z M 67.800781 59.601562 "/>
<path style=" stroke:none;fill-rule:nonzero;fill:rgb(81.176471%,90.588235%,90.980392%);fill-opacity:1;" d="M 48.199219 50.199219 L 48.601562 50.601562 C 48.601562 50.199219 48.398438 50.199219 48.199219 50.199219 Z M 48.199219 50.199219 "/>
<path style=" stroke:none;fill-rule:nonzero;fill:rgb(81.176471%,90.588235%,90.980392%);fill-opacity:1;" d="M 58.398438 58.800781 C 59.601562 58.199219 61 57.800781 62 57.398438 C 62.601562 57.800781 62.800781 57.601562 62.601562 57.199219 C 63.199219 57 63.800781 56.800781 64.398438 56.398438 C 66.199219 55.398438 67 53.199219 65 51.800781 C 63 50.398438 61.398438 50 60.398438 51.398438 C 59.601562 52.601562 58.800781 53.800781 60 55.398438 C 58.601562 55.800781 57.398438 56.199219 56.199219 56.800781 Z M 62.800781 53.800781 C 63.800781 54.398438 64.601562 54.601562 63.199219 54.800781 C 62.800781 55 62.199219 55 61.800781 55.199219 C 61.601562 54.601562 61.601562 54.199219 61.601562 54 C 61.398438 53.199219 61.800781 53.199219 62.800781 53.800781 Z M 62.800781 53.800781 "/>
<path style=" stroke:none;fill-rule:nonzero;fill:rgb(100%,100%,100%);fill-opacity:1;" d="M 66 70 C 66.601562 69.800781 67.601562 69.199219 68.398438 68.601562 C 69.199219 67.800781 68.601562 68 68 68.199219 C 67.398438 68.398438 66.800781 68.800781 66 69 C 65.199219 69.398438 65 69 65.398438 67.601562 C 65.800781 66.398438 65.398438 66.398438 64.800781 66.601562 C 64.199219 66.800781 64 67.199219 63.398438 67.601562 C 63 67.800781 63 68.199219 64 67.800781 C 64.800781 67.398438 64.601562 67.800781 64.398438 68.800781 C 64 69.800781 64.601562 70.398438 66 70 Z M 66 70 "/>
<path style=" stroke:none;fill-rule:nonzero;fill:rgb(81.176471%,90.588235%,90.980392%);fill-opacity:1;" d="M 47.398438 48.199219 C 48 46.800781 48.398438 45.398438 48.800781 44.398438 C 49.199219 43.398438 49.601562 43.601562 49.398438 44.601562 C 49.199219 46.398438 49.199219 49.199219 51 50.398438 C 52.800781 51.398438 55.601562 49.601562 56.601562 47.601562 C 59.601562 51.398438 62.199219 49.601562 62.398438 46 C 62.398438 44.800781 62 42.398438 61.601562 41.601562 C 61.199219 40.800781 61.601562 40.800781 62 41.199219 C 62.398438 41.601562 63.199219 42 62.800781 40.601562 C 62.398438 39.398438 61.800781 38.601562 61.199219 38 C 60.601562 37.398438 60.398438 37.800781 60.199219 38.199219 C 60 38.601562 60 38.800781 59.601562 39.199219 C 59.199219 39.601562 59.398438 39.800781 59.601562 40.398438 C 60.800781 43.199219 61.800781 47.398438 60 47.800781 C 58.398438 48.199219 57.398438 44.601562 57.398438 43 C 57.398438 41 57 39.199219 56.601562 38 C 56.199219 36.800781 56 36.800781 55.601562 37.398438 C 55.398438 37.800781 55.398438 38.199219 55 38.601562 C 54.800781 39 55 39.199219 55.199219 40 C 56.199219 44.601562 56 46.601562 54 47.800781 C 52 49 50.800781 47.800781 50.800781 46.398438 C 50.800781 45 50.800781 43.199219 51 42 C 51.199219 40.800781 51.398438 40.398438 51 39.800781 C 50.601562 39.199219 50.199219 39.398438 49.601562 40.199219 C 48.398438 42 47 45 46.601562 46.398438 C 46.199219 47.800781 45.199219 47.398438 44.601562 46.199219 C 43.800781 44.800781 44 42.199219 44.199219 41 C 44.398438 40 44.398438 39.601562 43.800781 40.601562 C 42.800781 43.398438 42.800781 46.199219 45 48.601562 C 46 50.398438 46.800781 49.601562 47.398438 48.199219 Z M 47.398438 48.199219 "/>
<path style=" stroke:none;fill-rule:nonzero;fill:rgb(81.176471%,90.588235%,90.980392%);fill-opacity:1;" d="M 53 42.800781 C 53 43.398438 53 44.199219 53.398438 43 C 53.601562 41.800781 53.601562 40.199219 53.199219 39.199219 C 52.800781 38.199219 52.601562 38 52.199219 38.398438 C 51.800781 38.800781 51.800781 39 52.199219 39.398438 C 52.601562 40 53.199219 41.398438 53 42.800781 Z M 53 42.800781 "/>
<path style=" stroke:none;fill-rule:nonzero;fill:rgb(81.176471%,90.588235%,90.980392%);fill-opacity:1;" d="M 57.199219 52.199219 C 57.199219 53.800781 56.800781 53.800781 56.199219 52.199219 C 56 51.601562 55.800781 51.601562 55.601562 52.398438 C 55.601562 53.800781 55 54 54.601562 52.601562 C 54.398438 52 54.398438 51.398438 54.199219 52.398438 C 54 53.199219 54.199219 53.800781 54.601562 54.398438 C 55 54.800781 55.601562 54.800781 55.800781 54.199219 C 56 53.601562 56.199219 53.601562 56.601562 54 C 57 54.398438 58.601562 54 57.800781 51.800781 C 57.398438 51 57.199219 51.199219 57.199219 52.199219 Z M 57.199219 52.199219 "/>
<path style=" stroke:none;fill-rule:nonzero;fill:rgb(81.176471%,90.588235%,90.980392%);fill-opacity:1;" d="M 73.398438 39.601562 C 74 40 74.601562 41 74.398438 42.199219 C 74.199219 43.199219 74.398438 43.800781 75 42.398438 C 75.601562 41 75.199219 39.398438 74.601562 38.398438 C 74 37.398438 73.800781 37.800781 73.398438 38.199219 C 73 38.800781 72.800781 39.398438 73.398438 39.601562 Z M 73.398438 39.601562 "/>
<path style=" stroke:none;fill-rule:nonzero;fill:rgb(81.176471%,90.588235%,90.980392%);fill-opacity:1;" d="M 63.199219 40.199219 C 63.199219 40.800781 63.398438 41.199219 64.199219 41.398438 C 65.800781 43.601562 67.601562 46 69.199219 48.199219 C 69.398438 50.199219 69.800781 52.199219 70 54 C 70.398438 58 71.199219 63.398438 70.601562 65.800781 C 70.199219 67.601562 70.601562 68.199219 71.398438 65.601562 C 72.199219 63 72.199219 60.398438 71.601562 56.601562 C 71.398438 55 71.398438 53.199219 71.199219 51.199219 C 73.800781 55.398438 76.398438 59.398438 77.398438 62.199219 C 78 63.800781 78.601562 64 78 62 C 77.398438 59.199219 74.800781 54.398438 70.800781 48.398438 C 70.601562 46.800781 70.601562 45.199219 70.601562 44 C 71.199219 44.601562 71.601562 44.199219 71.398438 43.398438 C 71 41.800781 70.398438 40.601562 69.800781 39 C 69.601562 38.199219 68.800781 38.199219 68.398438 39.199219 C 68 40.398438 68 40.601562 68.398438 41.398438 C 68.398438 42.398438 68.601562 43.800781 68.800781 45.199219 C 68.199219 44.199219 67.199219 42.800781 66.398438 41.800781 C 67.398438 42.199219 68.199219 42 67.199219 40.800781 C 66.199219 39.800781 64.800781 38.601562 64 37.800781 C 63.199219 37 62.800781 37.601562 62.800781 38.199219 C 63.199219 39.199219 63.398438 39.601562 63.199219 40.199219 Z M 63.199219 40.199219 "/>
<path style=" stroke:none;fill-rule:nonzero;fill:rgb(81.176471%,90.588235%,90.980392%);fill-opacity:1;" d="M 74.601562 45.800781 C 74.398438 46.800781 74 46.398438 73.800781 45.601562 C 73.601562 45.199219 73.398438 45.398438 73.398438 46.199219 C 73.601562 47 73.800781 47.601562 74.398438 47 C 74.800781 46.601562 74.800781 46.601562 75.398438 47 C 75.800781 47.398438 76.199219 47 76.398438 46.800781 C 76.398438 46.601562 76.601562 46.199219 76.398438 45.199219 C 76.199219 44.199219 76 44.800781 75.800781 45.601562 C 75.601562 46.398438 75.199219 46.601562 75 45.601562 C 75 44.800781 74.601562 45 74.601562 45.800781 Z M 74.601562 45.800781 "/>
<path style=" stroke:none;fill-rule:nonzero;fill:rgb(81.176471%,90.588235%,90.980392%);fill-opacity:1;" d="M 79.199219 58.800781 C 79.398438 62.398438 79.800781 64 77.601562 66.601562 C 75.199219 69.199219 73.601562 70 72.601562 70.199219 C 71.199219 70.601562 70.800781 71.199219 72.800781 71 C 75.800781 70.800781 76.199219 70.800781 78.800781 67.800781 C 80.199219 66.199219 80.800781 64.199219 80.800781 59.398438 C 80.601562 51 79.601562 47.398438 79.601562 42.800781 C 80 43.199219 80.601562 43.199219 80.398438 42.398438 C 80 41.398438 79.800781 40.199219 79.601562 39.199219 C 79.199219 38.199219 79 37.800781 78.601562 38.398438 C 78.199219 39 77.800781 39.199219 77.601562 39.601562 C 77.398438 40 77.199219 40.601562 77.601562 41.199219 C 78.800781 51 79 55.199219 79.199219 58.800781 Z M 79.199219 58.800781 "/>
<path style=" stroke:none;fill-rule:nonzero;fill:rgb(81.176471%,90.588235%,90.980392%);fill-opacity:1;" d="M 84.398438 59.800781 C 84.601562 61.800781 85 63.199219 84.398438 65.601562 C 84.199219 66.199219 84.601562 66.601562 85 65.601562 C 86.800781 62.199219 85.601562 59.199219 85.398438 57.199219 C 85.199219 54.199219 84 46.398438 83.800781 43.199219 L 84 43.398438 C 84.800781 43.800781 85.800781 44.199219 85.199219 43 C 84.601562 42 84 40.199219 83.601562 39 C 83.199219 37.800781 83 37.800781 82.398438 38.800781 C 81.199219 40.398438 82 42 82.398438 44 C 83.199219 50.800781 84.199219 57.800781 84.398438 59.800781 Z M 84.398438 59.800781 "/>
<path style=" stroke:none;fill-rule:nonzero;fill:rgb(81.176471%,90.588235%,90.980392%);fill-opacity:1;" d="M 88.601562 48.601562 C 89.199219 49.199219 89.601562 50.398438 90 51 C 90.398438 52 90.800781 51.199219 90.800781 50.601562 C 90.800781 50 90.601562 48.199219 90.800781 47.601562 C 91.199219 46.601562 91.800781 48 92 47.398438 C 92.199219 47 91.800781 46.800781 91.601562 46.398438 C 91.398438 45.800781 91.199219 46 90.800781 46.199219 C 90.398438 46.601562 90.199219 47 90.199219 47.199219 C 90.199219 47.800781 90.199219 48.398438 90.199219 49.398438 C 90.199219 50.199219 90 50.199219 89.800781 49.800781 C 89.601562 49.199219 89 47.800781 88.601562 47.398438 C 88.199219 47 87.601562 47.199219 87.601562 47.800781 C 87.601562 48.398438 87.601562 48.199219 87.601562 48.800781 C 87.601562 49.199219 88.398438 49.199219 88.601562 48.601562 Z M 88.601562 48.601562 "/>
<path style=" stroke:none;fill-rule:nonzero;fill:rgb(81.176471%,90.588235%,90.980392%);fill-opacity:1;" d="M 88.199219 56.398438 C 88.199219 57 89 56.199219 89.601562 55.800781 C 90.199219 55.398438 92 54.199219 92.800781 53.800781 C 93.601562 53.398438 93.398438 53.199219 93.199219 52.398438 C 93.199219 51.601562 92.601562 52.199219 92 52.800781 C 91.398438 53.398438 89.601562 54.601562 89 55.199219 C 88.398438 55.800781 88.199219 56 88.199219 56.398438 Z M 88.199219 56.398438 "/>
<path style=" stroke:none;fill-rule:nonzero;fill:rgb(81.176471%,90.588235%,90.980392%);fill-opacity:1;" d="M 84 67.199219 C 83.199219 65.601562 83.199219 64 83.199219 62.601562 C 83.199219 61.398438 83 60.398438 82.601562 62.398438 C 81.398438 67.199219 82.199219 68.199219 83.398438 69.199219 C 85 70.601562 85.601562 70.800781 86.398438 69.398438 C 88 67 88.601562 65 89.398438 63.800781 C 90.199219 62.800781 90.199219 63.601562 90.601562 64 C 91.601562 65.199219 92.398438 65.601562 93.800781 65.800781 C 95.199219 66 97.601562 64.800781 97.398438 60.398438 C 97.199219 57.601562 97 54 96.800781 50 C 98.199219 51.800781 99.199219 53.398438 100.199219 54.800781 C 100.601562 57.398438 100.800781 59.800781 100.800781 61.601562 C 100.601562 63.800781 101.199219 63.800781 101.601562 61.601562 C 101.800781 60.800781 101.800781 58.800781 101.601562 56.601562 C 103.398438 59 104.398438 60.398438 105 61.601562 C 105.800781 63 106.199219 64 106 61.398438 C 106 60.398438 105.601562 59.601562 104.398438 57.800781 C 103.199219 56.199219 102.199219 54.601562 101.199219 53 C 100.800781 49.199219 100.398438 45 100.398438 42.800781 C 101 43.199219 101.398438 42.800781 101 42 C 100.800781 41.199219 100.199219 38.800781 99.800781 38 C 99.398438 37.199219 99 37.199219 98.601562 38.199219 C 98.199219 39 97.800781 39.398438 98 40 C 98.199219 43.800781 98.601562 47.398438 99.199219 50.601562 C 98.199219 49.199219 97.199219 47.800781 96.398438 46.601562 C 96.398438 45.199219 96.199219 43.800781 96.199219 42.398438 C 96.800781 42.800781 97 42.800781 96.800781 41.800781 C 96.601562 41 95.800781 39 95.398438 38.199219 C 95 37.398438 94.800781 37.398438 94.398438 38 C 93.800781 39 93.601562 39.800781 94.199219 40.800781 C 94.199219 41.800781 94.398438 42.601562 94.398438 43.601562 C 93.800781 42.800781 93.398438 42 92.800781 41.398438 C 93.398438 41.601562 93.800781 41.199219 93.199219 40.601562 C 92.601562 40 91.398438 39 90.800781 38.398438 C 90.199219 37.601562 89.800781 37.800781 89.800781 38.398438 C 89.800781 39 89.800781 39.601562 89.800781 40.199219 C 89.800781 40.800781 89.800781 41.199219 90.398438 42.199219 C 91.800781 44 93.398438 45.800781 94.601562 47.601562 C 95.199219 54 95.398438 58.199219 95.398438 60.800781 C 95.398438 62.398438 94.800781 63.199219 94 63.398438 C 93.199219 63.601562 92.398438 63.199219 91.601562 62 C 90.199219 60 89.601562 60.398438 88.601562 62.199219 C 87.601562 64 86.800781 65.398438 86.199219 66.601562 C 85.800781 67.800781 84.800781 68.800781 84 67.199219 Z M 84 67.199219 "/>
<path style=" stroke:none;fill-rule:nonzero;fill:rgb(81.176471%,90.588235%,90.980392%);fill-opacity:1;" d="M 103.199219 45 C 103.199219 46.199219 103.601562 46 103.800781 45 C 104 44 104 42 103.398438 40.800781 C 102.800781 39.398438 102.601562 40 102.398438 40.398438 C 102 41 102 41.199219 102.601562 41.800781 C 102.800781 42.398438 103.199219 43.800781 103.199219 45 Z M 103.199219 45 "/>
<path style=" stroke:none;fill-rule:nonzero;fill:rgb(81.176471%,90.588235%,90.980392%);fill-opacity:1;" d="M 108.601562 57.398438 C 108.199219 49 107.199219 45.398438 107.398438 42.199219 C 108.199219 42.800781 108.398438 42.601562 108 41.601562 C 107.601562 40.601562 107 39.398438 106.601562 38.199219 C 106.199219 37.199219 106 37.398438 105.398438 38.199219 C 104.800781 39 104.800781 39.601562 105 40 C 106.199219 50.199219 106.800781 55.601562 107 58.800781 C 107.199219 63.199219 106.199219 65.800781 101.800781 68.800781 C 100.398438 69.800781 98.800781 70.800781 102.199219 70 C 105.398438 69 109 66.800781 108.601562 57.398438 Z M 108.601562 57.398438 "/>
<path style=" stroke:none;fill-rule:nonzero;fill:rgb(81.176471%,90.588235%,90.980392%);fill-opacity:1;" d="M 97.398438 66.199219 C 96.800781 67 98.199219 67.398438 98.398438 66.800781 C 98.800781 67.398438 98.398438 68.398438 97.800781 69 C 96.800781 69.800781 97.398438 70 98 69.398438 C 98.601562 69 100.199219 67.199219 99.199219 66 C 98.601562 65.601562 97.800781 65.601562 97.398438 66.199219 Z M 97.398438 66.199219 "/>
<path style=" stroke:none;fill-rule:nonzero;fill:rgb(100%,100%,100%);fill-opacity:1;" d="M 93 81 C 90.398438 81 88 81 85.398438 81.199219 L 85.398438 80.398438 C 86.199219 79.398438 86 79.398438 85.398438 78.398438 C 85.199219 78 85 77.601562 84.398438 78.398438 C 83.800781 79.199219 83.800781 79.398438 84.601562 80.398438 L 84.601562 81.199219 C 64.800781 81.398438 43 81.199219 24.199219 81 C 26.199219 84.398438 33 84.199219 39.199219 84.199219 C 44.800781 84.199219 61.601562 84.199219 84.398438 83.601562 L 84.398438 84.601562 C 83.601562 85.601562 83.800781 85.601562 84.398438 86.601562 C 85 87.398438 85.199219 87 85.398438 86.601562 C 85.601562 86.398438 85.601562 86.199219 85.601562 86.199219 L 88.601562 86.199219 C 88.601562 86.601562 89.199219 86.800781 89.398438 86.800781 C 89.601562 86.800781 90.199219 86.601562 90.199219 86.199219 L 93.601562 86.199219 C 94 86.800781 94.398438 87 95 87 C 96.199219 87 96.800781 85.601562 96.601562 83.800781 C 96.398438 81.199219 95.398438 80.800781 93 81 Z M 90.199219 85 C 90.199219 84.601562 89.601562 84.398438 89.398438 84.398438 C 89.199219 84.398438 88.601562 84.601562 88.601562 85 L 85.601562 85 C 85.601562 84.800781 85.398438 84.601562 85 84.199219 L 85 83.199219 C 87.601562 83.199219 90.398438 83 93.199219 83 C 93 83.601562 93 84.199219 93 84.800781 Z M 90.199219 85 "/>
<path style=" stroke:none;fill-rule:nonzero;fill:rgb(81.176471%,90.588235%,90.980392%);fill-opacity:1;" d="M 93 81 C 90.398438 81 88 81 85.398438 81.199219 L 85.398438 80.398438 C 86.199219 79.398438 86 79.398438 85.398438 78.398438 C 85.199219 78 85 77.601562 84.398438 78.398438 C 83.800781 79.199219 83.800781 79.398438 84.601562 80.398438 L 84.601562 81.199219 C 84.601562 81.199219 84.601562 81.199219 84.398438 81.199219 L 87.199219 83.601562 C 89.199219 83.601562 91.398438 83.398438 93.398438 83.398438 C 93.199219 84 93.199219 84.601562 93.199219 85.199219 L 90.199219 85.199219 C 90.199219 84.800781 89.601562 84.601562 89.398438 84.601562 C 89.199219 84.601562 88.800781 84.800781 88.800781 85 L 90.199219 86.199219 L 90.199219 86 L 93.601562 86 C 94 86.601562 94.398438 86.800781 95 86.800781 C 96.199219 86.800781 96.800781 85.398438 96.601562 83.601562 C 96.398438 81.199219 95.398438 80.800781 93 81 Z M 93 81 "/>
</g>
</svg>
