<?xml version="1.0" encoding="UTF-8"?>
<svg xmlns="http://www.w3.org/2000/svg" xmlns:xlink="http://www.w3.org/1999/xlink" width="px" height="px" viewBox="0 0 243 126" version="1.1">
<defs>
<clipPath id="clip1">
  <path d="M 49.75 120 L 222.25 120 L 222.25 122 L 49.75 122 Z M 49.75 120 "/>
</clipPath>
<clipPath id="clip2">
  <path d="M 63 15.8125 L 162 15.8125 L 162 84 L 63 84 Z M 63 15.8125 "/>
</clipPath>
</defs>
<g id="surface1">
<path style=" stroke:none;fill-rule:nonzero;fill:rgb(21.960784%,74.901961%,23.921569%);fill-opacity:1;" d="M 102.703125 121.257812 C 103.871094 118.726562 105.035156 116.160156 105.542969 113.417969 C 106.050781 110.675781 105.835938 107.699219 104.386719 105.320312 C 102.9375 102.941406 100.078125 101.328125 97.351562 101.867188 C 95.113281 102.308594 93.316406 104.078125 92.265625 106.109375 C 91.210938 108.144531 90.789062 110.433594 90.378906 112.6875 C 90.246094 110.128906 90.109375 107.527344 89.261719 105.109375 C 88.414062 102.691406 86.746094 100.4375 84.367188 99.5 C 81.992188 98.566406 78.898438 99.300781 77.644531 101.535156 C 75.878906 104.683594 78.222656 109.097656 76.191406 112.078125 C 75.84375 109.085938 72.726562 106.722656 69.765625 107.203125 C 66.804688 107.6875 64.589844 110.914062 65.199219 113.863281 C 65.5625 115.617188 66.753906 117.109375 68.179688 118.1875 C 69.605469 119.265625 71.265625 120.515625 72.90625 121.222656 Z M 102.703125 121.257812 "/>
<path style=" stroke:none;fill-rule:nonzero;fill:rgb(100%,100%,100%);fill-opacity:1;" d="M 66.753906 109.316406 C 69.105469 110.144531 71.480469 110.976562 73.628906 112.269531 C 75.550781 113.425781 77.265625 114.984375 78.347656 116.976562 C 78.941406 118.046875 79.292969 119.234375 79.378906 120.453125 C 79.394531 120.710938 79.792969 120.710938 79.777344 120.453125 C 79.640625 118.179688 78.535156 116.101562 77.007812 114.453125 C 75.332031 112.648438 73.160156 111.417969 70.914062 110.460938 C 69.585938 109.894531 68.222656 109.410156 66.859375 108.933594 C 66.617188 108.847656 66.515625 109.234375 66.753906 109.316406 Z M 66.753906 109.316406 "/>
<path style=" stroke:none;fill-rule:nonzero;fill:rgb(100%,100%,100%);fill-opacity:1;" d="M 80.320312 99.898438 C 81.765625 102.316406 82.925781 104.894531 83.769531 107.582031 C 84.617188 110.269531 85.152344 113.046875 85.359375 115.855469 C 85.476562 117.429688 85.488281 119.007812 85.398438 120.585938 C 85.382812 120.839844 85.78125 120.839844 85.796875 120.585938 C 85.957031 117.746094 85.785156 114.894531 85.285156 112.097656 C 84.785156 109.296875 83.96875 106.5625 82.84375 103.953125 C 82.210938 102.488281 81.484375 101.066406 80.664062 99.695312 C 80.636719 99.652344 80.59375 99.621094 80.542969 99.609375 C 80.496094 99.597656 80.441406 99.605469 80.398438 99.628906 C 80.351562 99.65625 80.320312 99.699219 80.304688 99.75 C 80.292969 99.796875 80.296875 99.851562 80.320312 99.898438 Z M 80.320312 99.898438 "/>
<path style=" stroke:none;fill-rule:nonzero;fill:rgb(100%,100%,100%);fill-opacity:1;" d="M 99.796875 102.191406 C 97.753906 106.804688 96.316406 111.660156 95.519531 116.644531 C 95.292969 118.042969 95.121094 119.449219 95 120.863281 C 94.976562 121.121094 95.375 121.117188 95.394531 120.863281 C 95.828125 115.890625 96.898438 110.996094 98.582031 106.300781 C 99.054688 104.980469 99.574219 103.675781 100.140625 102.394531 C 100.242188 102.160156 99.902344 101.957031 99.796875 102.191406 Z M 99.796875 102.191406 "/>
<path style=" stroke:none;fill-rule:nonzero;fill:rgb(90.196078%,90.196078%,90.196078%);fill-opacity:1;" d="M 170.367188 126.699219 L 170.335938 124.21875 L 158.691406 124.371094 L 158.722656 126.851562 Z M 170.367188 126.699219 "/>
<path style=" stroke:none;fill-rule:nonzero;fill:rgb(90.196078%,90.196078%,90.196078%);fill-opacity:1;" d="M 174.507812 127.253906 L 172.84375 127.25 L 171.816406 125.40625 L 172.925781 123.570312 L 174.472656 123.578125 C 174.085938 123.082031 173.554688 122.722656 172.953125 122.546875 C 172.351562 122.371094 171.710938 122.386719 171.121094 122.597656 C 170.527344 122.804688 170.015625 123.195312 169.65625 123.707031 C 169.296875 124.222656 169.109375 124.835938 169.113281 125.464844 C 169.121094 126.09375 169.320312 126.707031 169.691406 127.214844 C 170.058594 127.722656 170.578125 128.101562 171.171875 128.296875 C 171.769531 128.496094 172.410156 128.5 173.007812 128.3125 C 173.605469 128.125 174.128906 127.753906 174.507812 127.253906 Z M 174.507812 127.253906 "/>
<path style=" stroke:none;fill-rule:nonzero;fill:rgb(90.196078%,90.196078%,90.196078%);fill-opacity:1;" d="M 154.550781 127.253906 L 156.214844 127.25 L 157.242188 125.40625 L 156.132812 123.570312 L 154.585938 123.578125 C 154.972656 123.082031 155.503906 122.722656 156.105469 122.546875 C 156.707031 122.371094 157.347656 122.386719 157.9375 122.597656 C 158.53125 122.804688 159.042969 123.195312 159.402344 123.707031 C 159.761719 124.222656 159.949219 124.835938 159.945312 125.464844 C 159.9375 126.09375 159.738281 126.707031 159.367188 127.214844 C 159 127.722656 158.480469 128.101562 157.886719 128.296875 C 157.289062 128.496094 156.648438 128.5 156.050781 128.3125 C 155.453125 128.125 154.929688 127.753906 154.550781 127.253906 Z M 154.550781 127.253906 "/>
<g clip-path="url(#clip1)" clip-rule="nonzero">
<path style=" stroke:none;fill-rule:nonzero;fill:rgb(24.705882%,23.921569%,33.72549%);fill-opacity:1;" d="M 222 121.472656 L 50 121.472656 C 49.933594 121.472656 49.871094 121.449219 49.824219 121.402344 C 49.777344 121.355469 49.75 121.289062 49.75 121.222656 C 49.75 121.15625 49.777344 121.09375 49.824219 121.046875 C 49.871094 121 49.933594 120.972656 50 120.972656 L 222 120.972656 C 222.066406 120.972656 222.128906 121 222.175781 121.046875 C 222.222656 121.09375 222.25 121.15625 222.25 121.222656 C 222.25 121.289062 222.222656 121.355469 222.175781 121.402344 C 222.128906 121.449219 222.066406 121.472656 222 121.472656 Z M 222 121.472656 "/>
</g>
<path style=" stroke:none;fill-rule:nonzero;fill:rgb(18.431373%,18.039216%,25.490196%);fill-opacity:1;" d="M 184.871094 73.785156 C 189.429688 73.785156 193.121094 70.078125 193.121094 65.503906 C 193.121094 60.929688 189.429688 57.21875 184.871094 57.21875 C 180.316406 57.21875 176.621094 60.929688 176.621094 65.503906 C 176.621094 70.078125 180.316406 73.785156 184.871094 73.785156 Z M 184.871094 73.785156 "/>
<path style=" stroke:none;fill-rule:nonzero;fill:rgb(100%,72.156863%,72.156863%);fill-opacity:1;" d="M 188.214844 112 L 188.851562 115.011719 L 200.71875 113.984375 L 199.78125 109.539062 Z M 188.214844 112 "/>
<path style=" stroke:none;fill-rule:nonzero;fill:rgb(18.431373%,18.039216%,25.490196%);fill-opacity:1;" d="M 187.292969 121.410156 L 185.292969 111.949219 L 188.933594 111.171875 L 190.160156 116.980469 C 190.367188 117.949219 190.179688 118.960938 189.640625 119.789062 C 189.101562 120.621094 188.257812 121.203125 187.292969 121.410156 Z M 187.292969 121.410156 "/>
<path style=" stroke:none;fill-rule:nonzero;fill:rgb(100%,72.156863%,72.156863%);fill-opacity:1;" d="M 180.78125 111.839844 L 179.445312 114.609375 L 168.167969 110.753906 L 170.140625 106.667969 Z M 180.78125 111.839844 "/>
<path style=" stroke:none;fill-rule:nonzero;fill:rgb(18.431373%,18.039216%,25.490196%);fill-opacity:1;" d="M 177.703125 116.207031 L 180.277344 110.863281 L 183.628906 112.492188 L 179.429688 121.195312 C 178.988281 120.984375 178.597656 120.683594 178.273438 120.316406 C 177.945312 119.949219 177.695312 119.523438 177.535156 119.058594 C 177.375 118.597656 177.308594 118.105469 177.335938 117.617188 C 177.363281 117.125 177.488281 116.648438 177.703125 116.207031 Z M 177.703125 116.207031 "/>
<path style=" stroke:none;fill-rule:nonzero;fill:rgb(100%,72.156863%,72.156863%);fill-opacity:1;" d="M 158.566406 106.371094 C 158.949219 106.441406 159.347656 106.429688 159.726562 106.332031 C 160.109375 106.230469 160.460938 106.050781 160.765625 105.800781 C 161.066406 105.550781 161.3125 105.234375 161.480469 104.878906 C 161.648438 104.523438 161.738281 104.132812 161.742188 103.738281 L 180.335938 86.527344 L 175.71875 82.9375 L 158.882812 100.996094 C 158.222656 101.035156 157.601562 101.316406 157.132812 101.785156 C 156.664062 102.253906 156.386719 102.878906 156.347656 103.539062 C 156.308594 104.203125 156.511719 104.855469 156.921875 105.378906 C 157.328125 105.898438 157.914062 106.253906 158.566406 106.371094 Z M 158.566406 106.371094 "/>
<path style=" stroke:none;fill-rule:nonzero;fill:rgb(100%,72.156863%,72.156863%);fill-opacity:1;" d="M 183.835938 74.160156 C 187.226562 74.160156 189.976562 71.398438 189.976562 67.996094 C 189.976562 64.589844 187.226562 61.828125 183.835938 61.828125 C 180.445312 61.828125 177.695312 64.589844 177.695312 67.996094 C 177.695312 71.398438 180.445312 74.160156 183.835938 74.160156 Z M 183.835938 74.160156 "/>
<path style=" stroke:none;fill-rule:nonzero;fill:rgb(50.588235%,3.137255%,72.941176%);fill-opacity:1;" d="M 189.347656 104.230469 C 185.039062 104.230469 179.851562 103.320312 176.652344 99.59375 L 176.578125 99.511719 L 176.652344 99.429688 C 176.679688 99.402344 179.03125 96.699219 176.683594 91.882812 L 173.449219 92.882812 L 170.230469 88.617188 L 172.015625 83.25 L 179.308594 77.347656 C 180.355469 76.507812 181.625 76.003906 182.960938 75.894531 C 185.378906 75.660156 187.730469 74.988281 189.90625 73.910156 C 190.902344 73.425781 192 73.183594 193.109375 73.207031 L 193.25 73.210938 C 193.585938 73.222656 193.917969 73.300781 194.226562 73.441406 C 194.53125 73.582031 194.804688 73.785156 195.03125 74.035156 C 195.253906 74.289062 195.425781 74.582031 195.535156 74.902344 C 195.644531 75.222656 195.6875 75.5625 195.660156 75.898438 C 195.167969 82.332031 194.292969 97.871094 196.859375 103.222656 L 196.925781 103.359375 L 196.777344 103.398438 C 194.339844 103.949219 191.847656 104.230469 189.347656 104.230469 Z M 189.347656 104.230469 "/>
<path style=" stroke:none;fill-rule:nonzero;fill:rgb(18.431373%,18.039216%,25.490196%);fill-opacity:1;" d="M 177.496094 99.511719 C 177.496094 99.511719 161.246094 98.007812 159.496094 102.773438 C 157.746094 107.542969 159.746094 109.804688 162.746094 110.808594 C 165.746094 111.8125 177.496094 115.332031 177.496094 115.332031 L 180.5 110.808594 L 184.746094 109.550781 C 184.746094 109.550781 187.257812 109.433594 189.875 115.332031 C 190.4375 116.609375 198.292969 123.34375 199.429688 124.148438 C 200.5625 124.953125 201.894531 125.4375 203.28125 125.542969 C 205.378906 125.691406 207.246094 124.894531 207.246094 121.601562 C 207.246094 114.070312 196.746094 103.277344 196.746094 103.277344 Z M 177.496094 99.511719 "/>
<path style=" stroke:none;fill-rule:nonzero;fill:rgb(18.431373%,18.039216%,25.490196%);fill-opacity:1;" d="M 165.121094 106.917969 C 165.121094 106.917969 169.371094 105.660156 176.121094 108.925781 Z M 165.121094 106.917969 "/>
<path style=" stroke:none;fill-rule:nonzero;fill:rgb(18.431373%,18.039216%,25.490196%);fill-opacity:1;" d="M 177.710938 64.0625 C 180.109375 65.53125 182.8125 66.425781 185.609375 66.675781 L 184.777344 65.675781 C 185.382812 65.898438 186.023438 66.027344 186.667969 66.050781 C 186.992188 66.0625 187.3125 65.992188 187.605469 65.855469 C 187.898438 65.71875 188.15625 65.515625 188.355469 65.257812 C 188.519531 64.992188 188.617188 64.691406 188.636719 64.382812 C 188.660156 64.070312 188.609375 63.757812 188.484375 63.472656 C 188.230469 62.902344 187.835938 62.40625 187.335938 62.03125 C 186.453125 61.332031 185.410156 60.859375 184.300781 60.660156 C 183.191406 60.460938 182.050781 60.539062 180.980469 60.890625 C 180.246094 61.113281 179.585938 61.535156 179.082031 62.113281 C 178.832031 62.40625 178.660156 62.753906 178.578125 63.128906 C 178.496094 63.503906 178.507812 63.894531 178.613281 64.261719 "/>
<path style=" stroke:none;fill-rule:nonzero;fill:rgb(18.431373%,18.039216%,25.490196%);fill-opacity:1;" d="M 184.828125 59.136719 C 185.917969 56.59375 187.550781 54.320312 189.613281 52.480469 C 190.933594 51.296875 192.480469 50.285156 194.222656 49.976562 C 195.964844 49.671875 197.929688 50.195312 199 51.613281 C 199.875 52.769531 200.039062 54.320312 199.941406 55.769531 C 199.847656 57.222656 199.523438 58.65625 199.554688 60.109375 C 199.585938 61.59375 199.984375 63.042969 200.71875 64.332031 C 201.449219 65.617188 202.488281 66.703125 203.746094 67.484375 C 205 68.265625 206.429688 68.71875 207.902344 68.804688 C 209.375 68.894531 210.847656 68.609375 212.1875 67.976562 C 210.679688 68.8125 209.507812 70.136719 208.109375 71.144531 C 206.710938 72.148438 204.867188 72.839844 203.28125 72.175781 C 201.601562 71.472656 200.832031 69.558594 200.230469 67.835938 L 197.546875 60.144531 C 197.089844 58.835938 196.613281 57.492188 195.683594 56.46875 C 194.75 55.445312 193.242188 54.824219 191.960938 55.335938 C 190.988281 55.726562 190.355469 56.65625 189.800781 57.546875 C 189.246094 58.4375 188.664062 59.382812 187.726562 59.851562 C 186.789062 60.316406 185.402344 60.03125 185.09375 59.027344 "/>
<path style=" stroke:none;fill-rule:nonzero;fill:rgb(62.352941%,60.392157%,60.392157%);fill-opacity:1;" d="M 184.65625 96.429688 L 182.933594 98.207031 L 191.273438 106.367188 L 192.996094 104.589844 Z M 184.65625 96.429688 "/>
<path style=" stroke:none;fill-rule:nonzero;fill:rgb(62.352941%,60.392157%,60.392157%);fill-opacity:1;" d="M 191.378906 104.738281 C 191.035156 105.089844 190.808594 105.535156 190.71875 106.015625 C 190.628906 106.5 190.683594 106.996094 190.875 107.449219 C 191.070312 107.898438 191.390625 108.28125 191.800781 108.550781 C 192.210938 108.816406 192.691406 108.957031 193.179688 108.949219 C 193.667969 108.941406 194.144531 108.792969 194.546875 108.511719 C 194.949219 108.234375 195.261719 107.84375 195.441406 107.386719 C 195.621094 106.933594 195.664062 106.433594 195.5625 105.953125 C 195.460938 105.472656 195.222656 105.035156 194.871094 104.691406 C 194.402344 104.234375 193.769531 103.980469 193.113281 103.988281 C 192.460938 103.996094 191.835938 104.265625 191.378906 104.738281 Z M 193.90625 107.210938 C 193.757812 107.363281 193.570312 107.464844 193.367188 107.507812 C 193.160156 107.550781 192.949219 107.535156 192.753906 107.457031 C 192.558594 107.378906 192.394531 107.246094 192.273438 107.070312 C 192.15625 106.898438 192.089844 106.691406 192.089844 106.484375 C 192.085938 106.273438 192.144531 106.066406 192.257812 105.890625 C 192.371094 105.714844 192.535156 105.574219 192.730469 105.492188 C 192.921875 105.410156 193.132812 105.386719 193.339844 105.425781 C 193.546875 105.460938 193.734375 105.5625 193.886719 105.707031 C 194.085938 105.90625 194.203125 106.171875 194.207031 106.457031 C 194.210938 106.738281 194.101562 107.007812 193.90625 107.210938 Z M 193.90625 107.210938 "/>
<path style=" stroke:none;fill-rule:nonzero;fill:rgb(62.352941%,60.392157%,60.392157%);fill-opacity:1;" d="M 182.121094 93.101562 L 183.292969 94.285156 L 182.722656 96.316406 L 180.644531 96.828125 L 179.554688 95.726562 C 179.480469 96.351562 179.601562 96.984375 179.902344 97.535156 C 180.203125 98.085938 180.671875 98.527344 181.234375 98.800781 C 181.800781 99.070312 182.433594 99.160156 183.050781 99.050781 C 183.667969 98.941406 184.234375 98.644531 184.675781 98.195312 C 185.113281 97.746094 185.402344 97.167969 185.496094 96.546875 C 185.59375 95.925781 185.492188 95.292969 185.210938 94.730469 C 184.929688 94.167969 184.480469 93.710938 183.925781 93.417969 C 183.371094 93.125 182.742188 93.015625 182.121094 93.101562 Z M 182.121094 93.101562 "/>
<path style=" stroke:none;fill-rule:nonzero;fill:rgb(100%,72.156863%,72.156863%);fill-opacity:1;" d="M 186.933594 104.253906 C 186.828125 104.253906 186.722656 104.246094 186.617188 104.234375 C 186 104.164062 185.425781 103.882812 184.984375 103.445312 C 184.546875 103.003906 184.269531 102.425781 184.195312 101.804688 C 184.152344 101.417969 184.191406 101.027344 184.308594 100.65625 C 184.425781 100.285156 184.621094 99.945312 184.878906 99.652344 C 185.136719 99.363281 185.453125 99.132812 185.804688 98.972656 C 186.160156 98.8125 186.542969 98.730469 186.929688 98.730469 C 187.050781 98.730469 187.175781 98.742188 187.296875 98.757812 L 195.691406 89.785156 L 194.816406 86.855469 L 199.214844 84.875 L 200.449219 87.898438 C 200.863281 88.925781 200.933594 90.058594 200.65625 91.128906 C 200.378906 92.199219 199.765625 93.148438 198.90625 93.84375 L 189.664062 101.222656 C 189.675781 101.3125 189.679688 101.402344 189.679688 101.492188 C 189.679688 101.878906 189.597656 102.265625 189.441406 102.617188 C 189.28125 102.972656 189.050781 103.289062 188.765625 103.550781 C 188.261719 104.003906 187.609375 104.253906 186.933594 104.253906 Z M 186.933594 104.253906 "/>
<path style=" stroke:none;fill-rule:nonzero;fill:rgb(45.882353%,2.352941%,66.27451%);fill-opacity:1;" d="M 193.496094 74.414062 C 193.789062 74.28125 194.101562 74.214844 194.421875 74.207031 C 194.738281 74.203125 195.054688 74.261719 195.351562 74.382812 C 195.644531 74.503906 195.914062 74.683594 196.136719 74.910156 C 196.359375 75.140625 196.535156 75.410156 196.652344 75.707031 L 201.875 91.230469 L 194.246094 91.230469 Z M 193.496094 74.414062 "/>
<g clip-path="url(#clip2)" clip-rule="nonzero">
<path style=" stroke:none;fill-rule:nonzero;fill:rgb(24.705882%,23.921569%,33.72549%);fill-opacity:1;" d="M 161.871094 76.980469 L 161.871094 22.152344 C 161.871094 20.472656 161.203125 18.859375 160.019531 17.671875 C 158.835938 16.484375 157.230469 15.816406 155.554688 15.8125 L 69.738281 15.8125 C 68.0625 15.816406 66.460938 16.484375 65.273438 17.671875 C 64.089844 18.859375 63.425781 20.472656 63.421875 22.152344 L 63.421875 76.980469 C 63.425781 78.664062 64.089844 80.273438 65.273438 81.464844 C 66.460938 82.652344 68.0625 83.320312 69.738281 83.324219 L 155.554688 83.324219 C 157.230469 83.320312 158.835938 82.652344 160.019531 81.464844 C 161.203125 80.273438 161.871094 78.664062 161.871094 76.980469 Z M 69.738281 82.578125 C 68.261719 82.574219 66.84375 81.984375 65.800781 80.9375 C 64.753906 79.886719 64.167969 78.464844 64.164062 76.980469 L 64.164062 22.152344 C 64.167969 20.671875 64.753906 19.25 65.800781 18.199219 C 66.84375 17.152344 68.261719 16.558594 69.738281 16.558594 L 155.554688 16.558594 C 157.035156 16.558594 158.449219 17.152344 159.496094 18.199219 C 160.539062 19.25 161.125 20.671875 161.128906 22.152344 L 161.128906 76.980469 C 161.125 78.464844 160.539062 79.886719 159.496094 80.9375 C 158.449219 81.984375 157.035156 82.574219 155.554688 82.578125 Z M 69.738281 82.578125 "/>
</g>
<path style=" stroke:none;fill-rule:nonzero;fill:rgb(24.705882%,23.921569%,33.72549%);fill-opacity:1;" d="M 161.128906 25.675781 L 64.164062 25.675781 C 64.066406 25.675781 63.972656 25.636719 63.902344 25.570312 C 63.832031 25.5 63.792969 25.402344 63.792969 25.304688 C 63.792969 25.207031 63.832031 25.109375 63.902344 25.039062 C 63.972656 24.972656 64.066406 24.933594 64.164062 24.933594 L 161.128906 24.933594 C 161.226562 24.933594 161.320312 24.972656 161.390625 25.039062 C 161.460938 25.109375 161.5 25.207031 161.5 25.304688 C 161.5 25.402344 161.460938 25.5 161.390625 25.570312 C 161.320312 25.636719 161.226562 25.675781 161.128906 25.675781 Z M 161.128906 25.675781 "/>
<path style=" stroke:none;fill-rule:nonzero;fill:rgb(50.588235%,3.137255%,72.941176%);fill-opacity:1;" d="M 70.480469 22.898438 C 71.507812 22.898438 72.339844 22.066406 72.339844 21.035156 C 72.339844 20.003906 71.507812 19.167969 70.480469 19.167969 C 69.457031 19.167969 68.625 20.003906 68.625 21.035156 C 68.625 22.066406 69.457031 22.898438 70.480469 22.898438 Z M 70.480469 22.898438 "/>
<path style=" stroke:none;fill-rule:nonzero;fill:rgb(50.588235%,3.137255%,72.941176%);fill-opacity:1;" d="M 76.796875 22.898438 C 77.824219 22.898438 78.65625 22.066406 78.65625 21.035156 C 78.65625 20.003906 77.824219 19.167969 76.796875 19.167969 C 75.769531 19.167969 74.941406 20.003906 74.941406 21.035156 C 74.941406 22.066406 75.769531 22.898438 76.796875 22.898438 Z M 76.796875 22.898438 "/>
<path style=" stroke:none;fill-rule:nonzero;fill:rgb(50.588235%,3.137255%,72.941176%);fill-opacity:1;" d="M 83.113281 22.898438 C 84.136719 22.898438 84.96875 22.066406 84.96875 21.035156 C 84.96875 20.003906 84.136719 19.167969 83.113281 19.167969 C 82.085938 19.167969 81.253906 20.003906 81.253906 21.035156 C 81.253906 22.066406 82.085938 22.898438 83.113281 22.898438 Z M 83.113281 22.898438 "/>
<path style=" stroke:none;fill-rule:nonzero;fill:rgb(53.72549%,14.117647%,72.156863%);fill-opacity:1;" d="M 96.996094 65.820312 C 96.960938 65.820312 96.929688 65.8125 96.898438 65.800781 C 96.867188 65.789062 96.839844 65.769531 96.816406 65.746094 C 96.792969 65.722656 96.777344 65.695312 96.765625 65.664062 C 96.75 65.632812 96.746094 65.601562 96.746094 65.566406 C 96.746094 62.949219 95.601562 61.492188 93.757812 59.984375 C 93.734375 59.964844 93.710938 59.9375 93.695312 59.910156 C 93.679688 59.878906 93.671875 59.847656 93.667969 59.816406 C 93.664062 59.78125 93.667969 59.75 93.675781 59.71875 C 93.683594 59.6875 93.699219 59.65625 93.722656 59.628906 C 93.742188 59.605469 93.769531 59.582031 93.796875 59.566406 C 93.824219 59.550781 93.859375 59.542969 93.890625 59.539062 C 93.921875 59.535156 93.957031 59.539062 93.988281 59.546875 C 94.019531 59.558594 94.046875 59.574219 94.074219 59.59375 C 96.03125 61.195312 97.246094 62.753906 97.246094 65.566406 C 97.246094 65.601562 97.238281 65.632812 97.226562 65.664062 C 97.214844 65.695312 97.195312 65.722656 97.171875 65.746094 C 97.148438 65.769531 97.121094 65.789062 97.089844 65.800781 C 97.058594 65.8125 97.027344 65.820312 96.996094 65.820312 Z M 96.996094 65.820312 "/>
<path style=" stroke:none;fill-rule:nonzero;fill:rgb(53.72549%,14.117647%,72.156863%);fill-opacity:1;" d="M 75.578125 65.820312 C 75.546875 65.820312 75.515625 65.8125 75.484375 65.800781 C 75.453125 65.789062 75.425781 65.769531 75.402344 65.746094 C 75.378906 65.722656 75.359375 65.695312 75.347656 65.664062 C 75.335938 65.632812 75.328125 65.601562 75.328125 65.566406 C 75.328125 62.753906 76.542969 61.195312 78.5 59.59375 C 78.523438 59.574219 78.554688 59.558594 78.585938 59.546875 C 78.617188 59.539062 78.652344 59.535156 78.683594 59.539062 C 78.714844 59.542969 78.746094 59.550781 78.777344 59.566406 C 78.804688 59.582031 78.832031 59.605469 78.851562 59.628906 C 78.871094 59.65625 78.886719 59.6875 78.898438 59.71875 C 78.90625 59.75 78.910156 59.78125 78.90625 59.816406 C 78.902344 59.847656 78.894531 59.878906 78.878906 59.910156 C 78.863281 59.9375 78.839844 59.964844 78.816406 59.984375 C 76.972656 61.492188 75.828125 62.953125 75.828125 65.566406 C 75.828125 65.601562 75.824219 65.632812 75.808594 65.664062 C 75.796875 65.695312 75.777344 65.722656 75.757812 65.746094 C 75.734375 65.769531 75.707031 65.789062 75.675781 65.800781 C 75.644531 65.8125 75.613281 65.820312 75.578125 65.820312 Z M 75.578125 65.820312 "/>
<path style=" stroke:none;fill-rule:nonzero;fill:rgb(53.72549%,14.117647%,72.156863%);fill-opacity:1;" d="M 94.851562 48.617188 C 94.800781 48.617188 94.75 48.601562 94.710938 48.574219 C 94.667969 48.542969 94.636719 48.5 94.617188 48.453125 C 94.601562 48.402344 94.597656 48.351562 94.613281 48.300781 C 94.625 48.25 94.65625 48.207031 94.695312 48.171875 C 96.589844 46.625 96.746094 44.421875 96.746094 41.917969 C 96.746094 41.851562 96.769531 41.785156 96.816406 41.738281 C 96.863281 41.691406 96.929688 41.667969 96.996094 41.667969 C 97.0625 41.667969 97.125 41.691406 97.171875 41.738281 C 97.21875 41.785156 97.246094 41.851562 97.246094 41.917969 C 97.246094 44.554688 97.078125 46.875 95.011719 48.5625 C 94.964844 48.597656 94.910156 48.617188 94.851562 48.617188 Z M 94.851562 48.617188 "/>
<path style=" stroke:none;fill-rule:nonzero;fill:rgb(53.72549%,14.117647%,72.156863%);fill-opacity:1;" d="M 77.71875 48.484375 C 77.664062 48.484375 77.609375 48.464844 77.5625 48.425781 C 75.496094 46.738281 75.328125 44.480469 75.328125 41.917969 C 75.328125 41.851562 75.355469 41.785156 75.402344 41.738281 C 75.449219 41.691406 75.511719 41.667969 75.578125 41.667969 C 75.644531 41.667969 75.710938 41.691406 75.757812 41.738281 C 75.804688 41.785156 75.828125 41.851562 75.828125 41.917969 C 75.828125 44.4375 75.980469 46.488281 77.878906 48.039062 C 77.917969 48.070312 77.949219 48.117188 77.960938 48.164062 C 77.976562 48.214844 77.972656 48.269531 77.957031 48.316406 C 77.9375 48.367188 77.90625 48.40625 77.863281 48.4375 C 77.824219 48.46875 77.773438 48.484375 77.71875 48.484375 Z M 77.71875 48.484375 "/>
<path style=" stroke:none;fill-rule:nonzero;fill:rgb(53.72549%,14.117647%,72.156863%);fill-opacity:1;" d="M 100.207031 54.003906 L 94.851562 54.003906 C 94.785156 54.003906 94.722656 53.976562 94.675781 53.929688 C 94.628906 53.882812 94.601562 53.816406 94.601562 53.75 C 94.601562 53.683594 94.628906 53.621094 94.675781 53.574219 C 94.722656 53.527344 94.785156 53.5 94.851562 53.5 L 100.207031 53.5 C 100.273438 53.5 100.335938 53.527344 100.382812 53.574219 C 100.429688 53.621094 100.457031 53.683594 100.457031 53.75 C 100.457031 53.816406 100.429688 53.882812 100.382812 53.929688 C 100.335938 53.976562 100.273438 54.003906 100.207031 54.003906 Z M 100.207031 54.003906 "/>
<path style=" stroke:none;fill-rule:nonzero;fill:rgb(53.72549%,14.117647%,72.156863%);fill-opacity:1;" d="M 77.722656 54.003906 L 72.367188 54.003906 C 72.300781 54.003906 72.238281 53.976562 72.191406 53.929688 C 72.144531 53.882812 72.117188 53.816406 72.117188 53.75 C 72.117188 53.683594 72.144531 53.621094 72.191406 53.574219 C 72.238281 53.527344 72.300781 53.5 72.367188 53.5 L 77.722656 53.5 C 77.785156 53.5 77.851562 53.527344 77.898438 53.574219 C 77.945312 53.621094 77.972656 53.683594 77.972656 53.75 C 77.972656 53.816406 77.945312 53.882812 77.898438 53.929688 C 77.851562 53.976562 77.785156 54.003906 77.722656 54.003906 Z M 77.722656 54.003906 "/>
<path style=" stroke:none;fill-rule:nonzero;fill:rgb(53.72549%,14.117647%,72.156863%);fill-opacity:1;" d="M 86.285156 64.742188 C 86.253906 64.742188 86.222656 64.738281 86.191406 64.726562 C 86.160156 64.710938 86.132812 64.695312 86.109375 64.671875 C 86.085938 64.648438 86.070312 64.621094 86.054688 64.589844 C 86.042969 64.558594 86.035156 64.527344 86.035156 64.492188 L 86.035156 47.292969 C 86.035156 47.226562 86.0625 47.160156 86.109375 47.113281 C 86.15625 47.066406 86.21875 47.042969 86.285156 47.042969 C 86.351562 47.042969 86.417969 47.066406 86.464844 47.113281 C 86.511719 47.160156 86.535156 47.226562 86.535156 47.292969 L 86.535156 64.492188 C 86.535156 64.527344 86.53125 64.558594 86.519531 64.589844 C 86.503906 64.621094 86.488281 64.648438 86.464844 64.671875 C 86.441406 64.695312 86.414062 64.710938 86.382812 64.726562 C 86.351562 64.738281 86.320312 64.742188 86.285156 64.742188 Z M 86.285156 64.742188 "/>
<path style=" stroke:none;fill-rule:nonzero;fill:rgb(53.72549%,14.117647%,72.156863%);fill-opacity:1;" d="M 86.285156 64.742188 C 83.949219 64.742188 81.707031 63.808594 80.054688 62.148438 C 78.402344 60.488281 77.472656 58.238281 77.472656 55.890625 L 77.472656 49.4375 C 77.472656 45.304688 80.847656 42.738281 86.285156 42.738281 C 91.972656 42.738281 95.101562 45.117188 95.101562 49.4375 L 95.101562 55.890625 C 95.101562 58.238281 94.171875 60.488281 92.519531 62.148438 C 90.867188 63.808594 88.625 64.742188 86.285156 64.742188 Z M 86.285156 43.238281 C 82.265625 43.238281 77.972656 44.867188 77.972656 49.4375 L 77.972656 55.890625 C 77.96875 56.988281 78.183594 58.074219 78.601562 59.089844 C 79.019531 60.101562 79.632812 61.023438 80.40625 61.800781 C 81.175781 62.574219 82.09375 63.191406 83.101562 63.609375 C 84.113281 64.03125 85.195312 64.246094 86.285156 64.246094 C 87.378906 64.246094 88.460938 64.03125 89.46875 63.609375 C 90.480469 63.191406 91.398438 62.574219 92.167969 61.800781 C 92.941406 61.023438 93.554688 60.101562 93.972656 59.089844 C 94.390625 58.074219 94.605469 56.988281 94.601562 55.890625 L 94.601562 49.4375 C 94.601562 44.042969 89.394531 43.238281 86.285156 43.238281 Z M 86.285156 43.238281 "/>
<path style=" stroke:none;fill-rule:nonzero;fill:rgb(53.333333%,14.117647%,72.156863%);fill-opacity:1;" d="M 81.164062 44.285156 C 81.113281 44.285156 81.0625 44.269531 81.023438 44.242188 C 80.980469 44.214844 80.949219 44.175781 80.929688 44.128906 C 80.785156 43.765625 80.703125 43.378906 80.683594 42.992188 C 80.6875 41.503906 81.277344 40.078125 82.324219 39.023438 C 83.371094 37.96875 84.789062 37.375 86.273438 37.367188 L 86.300781 37.367188 C 87.78125 37.375 89.199219 37.964844 90.246094 39.015625 C 91.292969 40.066406 91.882812 41.492188 91.890625 42.976562 C 91.878906 43.339844 91.800781 43.699219 91.664062 44.035156 C 91.636719 44.09375 91.589844 44.144531 91.527344 44.167969 C 91.46875 44.195312 91.398438 44.195312 91.335938 44.167969 C 91.277344 44.144531 91.226562 44.097656 91.203125 44.035156 C 91.175781 43.972656 91.175781 43.90625 91.199219 43.84375 C 91.316406 43.566406 91.378906 43.269531 91.390625 42.96875 C 91.382812 41.617188 90.84375 40.324219 89.890625 39.367188 C 88.9375 38.414062 87.648438 37.875 86.300781 37.867188 L 86.273438 37.867188 C 84.925781 37.875 83.632812 38.414062 82.679688 39.371094 C 81.726562 40.328125 81.191406 41.625 81.183594 42.980469 C 81.199219 43.308594 81.273438 43.632812 81.394531 43.941406 C 81.410156 43.980469 81.414062 44.019531 81.410156 44.0625 C 81.40625 44.101562 81.390625 44.140625 81.371094 44.175781 C 81.347656 44.210938 81.316406 44.238281 81.28125 44.257812 C 81.242188 44.277344 81.203125 44.285156 81.164062 44.285156 Z M 81.164062 44.285156 "/>
<path style=" stroke:none;fill-rule:nonzero;fill:rgb(80%,80%,80%);fill-opacity:1;" d="M 111.675781 42.921875 L 108.675781 42.921875 C 108.214844 42.921875 107.769531 42.734375 107.441406 42.40625 C 107.113281 42.078125 106.925781 41.628906 106.925781 41.164062 C 106.925781 40.699219 107.113281 40.25 107.441406 39.921875 C 107.769531 39.59375 108.214844 39.40625 108.675781 39.40625 L 111.675781 39.40625 C 112.140625 39.40625 112.585938 39.59375 112.914062 39.921875 C 113.242188 40.25 113.425781 40.699219 113.425781 41.164062 C 113.425781 41.628906 113.242188 42.078125 112.914062 42.40625 C 112.585938 42.734375 112.140625 42.921875 111.675781 42.921875 Z M 111.675781 42.921875 "/>
<path style=" stroke:none;fill-rule:nonzero;fill:rgb(80%,80%,80%);fill-opacity:1;" d="M 132.175781 50.324219 L 129.175781 50.324219 C 128.714844 50.324219 128.269531 50.140625 127.941406 49.8125 C 127.613281 49.480469 127.425781 49.035156 127.425781 48.570312 C 127.425781 48.101562 127.613281 47.65625 127.941406 47.324219 C 128.269531 46.996094 128.714844 46.8125 129.175781 46.8125 L 132.175781 46.8125 C 132.640625 46.8125 133.085938 46.996094 133.414062 47.324219 C 133.742188 47.65625 133.925781 48.101562 133.925781 48.570312 C 133.925781 49.035156 133.742188 49.480469 133.414062 49.8125 C 133.085938 50.140625 132.640625 50.324219 132.175781 50.324219 Z M 132.175781 50.324219 "/>
<path style=" stroke:none;fill-rule:nonzero;fill:rgb(80%,80%,80%);fill-opacity:1;" d="M 141.675781 50.324219 L 138.675781 50.324219 C 138.214844 50.324219 137.769531 50.140625 137.441406 49.8125 C 137.113281 49.480469 136.925781 49.035156 136.925781 48.570312 C 136.925781 48.101562 137.113281 47.65625 137.441406 47.324219 C 137.769531 46.996094 138.214844 46.8125 138.675781 46.8125 L 141.675781 46.8125 C 142.140625 46.8125 142.585938 46.996094 142.914062 47.324219 C 143.242188 47.65625 143.425781 48.101562 143.425781 48.570312 C 143.425781 49.035156 143.242188 49.480469 142.914062 49.8125 C 142.585938 50.140625 142.140625 50.324219 141.675781 50.324219 Z M 141.675781 50.324219 "/>
<path style=" stroke:none;fill-rule:nonzero;fill:rgb(80%,80%,80%);fill-opacity:1;" d="M 151.175781 50.324219 L 148.175781 50.324219 C 147.714844 50.324219 147.269531 50.140625 146.941406 49.8125 C 146.613281 49.480469 146.425781 49.035156 146.425781 48.570312 C 146.425781 48.101562 146.613281 47.65625 146.941406 47.324219 C 147.269531 46.996094 147.714844 46.8125 148.175781 46.8125 L 151.175781 46.8125 C 151.640625 46.8125 152.085938 46.996094 152.414062 47.324219 C 152.742188 47.65625 152.925781 48.101562 152.925781 48.570312 C 152.925781 49.035156 152.742188 49.480469 152.414062 49.8125 C 152.085938 50.140625 151.640625 50.324219 151.175781 50.324219 Z M 151.175781 50.324219 "/>
<path style=" stroke:none;fill-rule:nonzero;fill:rgb(80%,80%,80%);fill-opacity:1;" d="M 132.425781 43.046875 L 118.425781 43.046875 C 117.964844 43.046875 117.519531 42.863281 117.191406 42.53125 C 116.863281 42.203125 116.675781 41.753906 116.675781 41.289062 C 116.675781 40.824219 116.863281 40.375 117.191406 40.046875 C 117.519531 39.71875 117.964844 39.53125 118.425781 39.53125 L 132.425781 39.53125 C 132.890625 39.53125 133.335938 39.71875 133.664062 40.046875 C 133.992188 40.375 134.175781 40.824219 134.175781 41.289062 C 134.175781 41.753906 133.992188 42.203125 133.664062 42.53125 C 133.335938 42.863281 132.890625 43.046875 132.425781 43.046875 Z M 132.425781 43.046875 "/>
<path style=" stroke:none;fill-rule:nonzero;fill:rgb(80%,80%,80%);fill-opacity:1;" d="M 122.675781 50.074219 L 108.675781 50.074219 C 108.214844 50.074219 107.769531 49.890625 107.441406 49.558594 C 107.113281 49.230469 106.925781 48.785156 106.925781 48.316406 C 106.925781 47.851562 107.113281 47.40625 107.441406 47.074219 C 107.769531 46.746094 108.214844 46.558594 108.675781 46.558594 L 122.675781 46.558594 C 123.140625 46.558594 123.585938 46.746094 123.914062 47.074219 C 124.242188 47.40625 124.425781 47.851562 124.425781 48.316406 C 124.425781 48.785156 124.242188 49.230469 123.914062 49.558594 C 123.585938 49.890625 123.140625 50.074219 122.675781 50.074219 Z M 122.675781 50.074219 "/>
<path style=" stroke:none;fill-rule:nonzero;fill:rgb(80%,80%,80%);fill-opacity:1;" d="M 150.175781 43.046875 L 139.425781 43.046875 C 138.964844 43.046875 138.519531 42.863281 138.191406 42.53125 C 137.863281 42.203125 137.675781 41.753906 137.675781 41.289062 C 137.675781 40.824219 137.863281 40.375 138.191406 40.046875 C 138.519531 39.71875 138.964844 39.53125 139.425781 39.53125 L 150.175781 39.53125 C 150.640625 39.53125 151.085938 39.71875 151.414062 40.046875 C 151.742188 40.375 151.925781 40.824219 151.925781 41.289062 C 151.925781 41.753906 151.742188 42.203125 151.414062 42.53125 C 151.085938 42.863281 150.640625 43.046875 150.175781 43.046875 Z M 150.175781 43.046875 "/>
<path style=" stroke:none;fill-rule:nonzero;fill:rgb(80%,80%,80%);fill-opacity:1;" d="M 111.675781 57.730469 L 108.675781 57.730469 C 108.214844 57.730469 107.769531 57.542969 107.441406 57.214844 C 107.113281 56.886719 106.925781 56.4375 106.925781 55.972656 C 106.925781 55.507812 107.113281 55.058594 107.441406 54.730469 C 107.769531 54.402344 108.214844 54.214844 108.675781 54.214844 L 111.675781 54.214844 C 112.140625 54.214844 112.585938 54.402344 112.914062 54.730469 C 113.242188 55.058594 113.425781 55.507812 113.425781 55.972656 C 113.425781 56.4375 113.242188 56.886719 112.914062 57.214844 C 112.585938 57.542969 112.140625 57.730469 111.675781 57.730469 Z M 111.675781 57.730469 "/>
<path style=" stroke:none;fill-rule:nonzero;fill:rgb(80%,80%,80%);fill-opacity:1;" d="M 132.425781 57.855469 L 118.425781 57.855469 C 117.964844 57.855469 117.519531 57.671875 117.191406 57.339844 C 116.863281 57.011719 116.675781 56.5625 116.675781 56.097656 C 116.675781 55.632812 116.863281 55.183594 117.191406 54.855469 C 117.519531 54.527344 117.964844 54.339844 118.425781 54.339844 L 132.425781 54.339844 C 132.890625 54.339844 133.335938 54.527344 133.664062 54.855469 C 133.992188 55.183594 134.175781 55.632812 134.175781 56.097656 C 134.175781 56.5625 133.992188 57.011719 133.664062 57.339844 C 133.335938 57.671875 132.890625 57.855469 132.425781 57.855469 Z M 132.425781 57.855469 "/>
<path style=" stroke:none;fill-rule:nonzero;fill:rgb(80%,80%,80%);fill-opacity:1;" d="M 150.175781 57.855469 L 139.425781 57.855469 C 138.964844 57.855469 138.519531 57.671875 138.191406 57.339844 C 137.863281 57.011719 137.675781 56.5625 137.675781 56.097656 C 137.675781 55.632812 137.863281 55.183594 138.191406 54.855469 C 138.519531 54.527344 138.964844 54.339844 139.425781 54.339844 L 150.175781 54.339844 C 150.640625 54.339844 151.085938 54.527344 151.414062 54.855469 C 151.742188 55.183594 151.925781 55.632812 151.925781 56.097656 C 151.925781 56.5625 151.742188 57.011719 151.414062 57.339844 C 151.085938 57.671875 150.640625 57.855469 150.175781 57.855469 Z M 150.175781 57.855469 "/>
<path style=" stroke:none;fill-rule:nonzero;fill:rgb(80%,80%,80%);fill-opacity:1;" d="M 145.425781 63.753906 C 145.429688 63.289062 145.613281 62.839844 145.941406 62.511719 C 146.269531 62.183594 146.714844 61.996094 147.175781 61.996094 L 150.175781 61.996094 C 150.640625 61.996094 151.085938 62.183594 151.414062 62.511719 C 151.742188 62.839844 151.925781 63.289062 151.925781 63.753906 C 151.925781 64.21875 151.742188 64.667969 151.414062 64.996094 C 151.085938 65.324219 150.640625 65.511719 150.175781 65.511719 L 147.175781 65.511719 C 146.714844 65.511719 146.269531 65.324219 145.941406 64.996094 C 145.613281 64.667969 145.429688 64.21875 145.425781 63.753906 Z M 145.425781 63.753906 "/>
<path style=" stroke:none;fill-rule:nonzero;fill:rgb(80%,80%,80%);fill-opacity:1;" d="M 124.675781 63.878906 C 124.679688 63.414062 124.863281 62.96875 125.191406 62.636719 C 125.519531 62.308594 125.964844 62.121094 126.425781 62.121094 L 140.425781 62.121094 C 140.890625 62.121094 141.335938 62.308594 141.664062 62.636719 C 141.992188 62.964844 142.175781 63.414062 142.175781 63.878906 C 142.175781 64.34375 141.992188 64.792969 141.664062 65.121094 C 141.335938 65.449219 140.890625 65.636719 140.425781 65.636719 L 126.425781 65.636719 C 125.964844 65.636719 125.519531 65.449219 125.191406 65.121094 C 124.863281 64.792969 124.679688 64.34375 124.675781 63.878906 Z M 124.675781 63.878906 "/>
<path style=" stroke:none;fill-rule:nonzero;fill:rgb(80%,80%,80%);fill-opacity:1;" d="M 106.925781 63.878906 C 106.929688 63.414062 107.113281 62.96875 107.441406 62.636719 C 107.769531 62.308594 108.214844 62.121094 108.675781 62.121094 L 119.425781 62.121094 C 119.890625 62.121094 120.335938 62.308594 120.664062 62.636719 C 120.992188 62.964844 121.175781 63.414062 121.175781 63.878906 C 121.175781 64.34375 120.992188 64.792969 120.664062 65.121094 C 120.335938 65.449219 119.890625 65.636719 119.425781 65.636719 L 108.675781 65.636719 C 108.214844 65.636719 107.769531 65.449219 107.441406 65.121094 C 107.113281 64.792969 106.929688 64.34375 106.925781 63.878906 Z M 106.925781 63.878906 "/>
</g>
</svg>
